<mxfile host="app.diagrams.net" modified="2023-06-30T08:36:06.088Z" agent="Mozilla/5.0 (X11; Linux x86_64) AppleWebKit/537.36 (KHTML, like Gecko) Chrome/111.0.0.0 Safari/537.36" etag="U_XA1WB_jRQ5zyM8rDQL" version="21.5.2" type="github">
  <diagram name="第 1 页" id="E6oDrkw3hYDFD17rWhZb">
    <mxGraphModel dx="12375" dy="6336" grid="1" gridSize="10" guides="1" tooltips="1" connect="1" arrows="1" fold="1" page="1" pageScale="1" pageWidth="827" pageHeight="1169" math="0" shadow="0">
      <root>
        <mxCell id="0" />
        <mxCell id="1" parent="0" />
        <mxCell id="8NAubKkpm3a8wYk_etbg-5" style="edgeStyle=orthogonalEdgeStyle;rounded=0;orthogonalLoop=1;jettySize=auto;html=1;entryX=0;entryY=0.5;entryDx=0;entryDy=0;" edge="1" parent="1" source="8NAubKkpm3a8wYk_etbg-1" target="8NAubKkpm3a8wYk_etbg-4">
          <mxGeometry relative="1" as="geometry" />
        </mxCell>
        <mxCell id="8NAubKkpm3a8wYk_etbg-51" style="edgeStyle=orthogonalEdgeStyle;rounded=0;orthogonalLoop=1;jettySize=auto;html=1;entryX=0;entryY=0.5;entryDx=0;entryDy=0;entryPerimeter=0;dashed=1;dashPattern=12 12;" edge="1" parent="1" source="8NAubKkpm3a8wYk_etbg-1" target="8NAubKkpm3a8wYk_etbg-50">
          <mxGeometry relative="1" as="geometry" />
        </mxCell>
        <mxCell id="8NAubKkpm3a8wYk_etbg-1" value="parse(initialDoc, mergedConfig)" style="rounded=0;whiteSpace=wrap;html=1;" vertex="1" parent="1">
          <mxGeometry x="340" y="-30" width="200" height="40" as="geometry" />
        </mxCell>
        <mxCell id="8NAubKkpm3a8wYk_etbg-3" style="edgeStyle=orthogonalEdgeStyle;rounded=0;orthogonalLoop=1;jettySize=auto;html=1;" edge="1" parent="1" source="8NAubKkpm3a8wYk_etbg-2" target="8NAubKkpm3a8wYk_etbg-1">
          <mxGeometry relative="1" as="geometry" />
        </mxCell>
        <mxCell id="8NAubKkpm3a8wYk_etbg-2" value="开始" style="strokeWidth=2;html=1;shape=mxgraph.flowchart.start_1;whiteSpace=wrap;" vertex="1" parent="1">
          <mxGeometry x="390" y="-220" width="100" height="60" as="geometry" />
        </mxCell>
        <mxCell id="8NAubKkpm3a8wYk_etbg-7" style="edgeStyle=orthogonalEdgeStyle;rounded=0;orthogonalLoop=1;jettySize=auto;html=1;" edge="1" parent="1" source="8NAubKkpm3a8wYk_etbg-4" target="8NAubKkpm3a8wYk_etbg-6">
          <mxGeometry relative="1" as="geometry" />
        </mxCell>
        <mxCell id="8NAubKkpm3a8wYk_etbg-4" value="taleweaver = new Taleweaver(doc, mergedConfig)" style="rounded=0;whiteSpace=wrap;html=1;" vertex="1" parent="1">
          <mxGeometry x="770" y="-30" width="290" height="40" as="geometry" />
        </mxCell>
        <mxCell id="8NAubKkpm3a8wYk_etbg-6" value="taleweaver.attach(container)" style="rounded=0;whiteSpace=wrap;html=1;" vertex="1" parent="1">
          <mxGeometry x="1200" y="-30" width="290" height="40" as="geometry" />
        </mxCell>
        <mxCell id="8NAubKkpm3a8wYk_etbg-8" value="" style="whiteSpace=wrap;html=1;" vertex="1" parent="1">
          <mxGeometry x="900" y="260" width="330" height="570" as="geometry" />
        </mxCell>
        <mxCell id="8NAubKkpm3a8wYk_etbg-9" value="Taleweaver" style="text;html=1;strokeColor=none;fillColor=none;align=center;verticalAlign=middle;whiteSpace=wrap;rounded=0;fontSize=30;" vertex="1" parent="1">
          <mxGeometry x="972.5" y="270" width="165" height="40" as="geometry" />
        </mxCell>
        <mxCell id="8NAubKkpm3a8wYk_etbg-19" style="edgeStyle=orthogonalEdgeStyle;rounded=0;orthogonalLoop=1;jettySize=auto;html=1;" edge="1" parent="1" source="8NAubKkpm3a8wYk_etbg-10" target="8NAubKkpm3a8wYk_etbg-18">
          <mxGeometry relative="1" as="geometry" />
        </mxCell>
        <mxCell id="8NAubKkpm3a8wYk_etbg-10" value="constructor(root, config）" style="rounded=0;whiteSpace=wrap;html=1;" vertex="1" parent="1">
          <mxGeometry x="920" y="740" width="290" height="40" as="geometry" />
        </mxCell>
        <mxCell id="8NAubKkpm3a8wYk_etbg-11" value="attach(container)" style="rounded=0;whiteSpace=wrap;html=1;" vertex="1" parent="1">
          <mxGeometry x="920" y="660" width="290" height="40" as="geometry" />
        </mxCell>
        <mxCell id="8NAubKkpm3a8wYk_etbg-13" style="edgeStyle=orthogonalEdgeStyle;rounded=0;orthogonalLoop=1;jettySize=auto;html=1;dashed=1;dashPattern=12 12;" edge="1" parent="1" source="8NAubKkpm3a8wYk_etbg-4" target="8NAubKkpm3a8wYk_etbg-10">
          <mxGeometry relative="1" as="geometry">
            <Array as="points">
              <mxPoint x="915" y="110" />
              <mxPoint x="600" y="110" />
              <mxPoint x="600" y="760" />
            </Array>
          </mxGeometry>
        </mxCell>
        <mxCell id="8NAubKkpm3a8wYk_etbg-17" value="内部过程" style="edgeLabel;html=1;align=center;verticalAlign=middle;resizable=0;points=[];" vertex="1" connectable="0" parent="8NAubKkpm3a8wYk_etbg-13">
          <mxGeometry x="-0.9072" y="1" relative="1" as="geometry">
            <mxPoint as="offset" />
          </mxGeometry>
        </mxCell>
        <mxCell id="8NAubKkpm3a8wYk_etbg-328" value="" style="edgeStyle=orthogonalEdgeStyle;rounded=0;orthogonalLoop=1;jettySize=auto;html=1;" edge="1" parent="1" source="8NAubKkpm3a8wYk_etbg-18" target="8NAubKkpm3a8wYk_etbg-319">
          <mxGeometry relative="1" as="geometry" />
        </mxCell>
        <mxCell id="8NAubKkpm3a8wYk_etbg-18" value="这里初始化了一堆组件，主要注意初始化了viewService这个组件，因为后续attach是使用viewService" style="rounded=0;whiteSpace=wrap;html=1;" vertex="1" parent="1">
          <mxGeometry x="920" y="950" width="290" height="60" as="geometry" />
        </mxCell>
        <mxCell id="8NAubKkpm3a8wYk_etbg-34" style="edgeStyle=orthogonalEdgeStyle;rounded=0;orthogonalLoop=1;jettySize=auto;html=1;entryX=0.25;entryY=1;entryDx=0;entryDy=0;endArrow=block;endFill=0;endSize=24;" edge="1" parent="1" source="8NAubKkpm3a8wYk_etbg-20" target="8NAubKkpm3a8wYk_etbg-27">
          <mxGeometry relative="1" as="geometry">
            <Array as="points">
              <mxPoint x="7665" y="3590" />
              <mxPoint x="8163" y="3590" />
            </Array>
          </mxGeometry>
        </mxCell>
        <mxCell id="8NAubKkpm3a8wYk_etbg-374" value="继承接口" style="edgeLabel;html=1;align=center;verticalAlign=middle;resizable=0;points=[];" vertex="1" connectable="0" parent="8NAubKkpm3a8wYk_etbg-34">
          <mxGeometry x="-0.2429" y="1" relative="1" as="geometry">
            <mxPoint as="offset" />
          </mxGeometry>
        </mxCell>
        <mxCell id="8NAubKkpm3a8wYk_etbg-20" value="" style="whiteSpace=wrap;html=1;" vertex="1" parent="1">
          <mxGeometry x="7500" y="3687" width="330" height="440" as="geometry" />
        </mxCell>
        <mxCell id="8NAubKkpm3a8wYk_etbg-21" value="IModelNode" style="text;html=1;strokeColor=none;fillColor=none;align=center;verticalAlign=middle;whiteSpace=wrap;rounded=0;fontSize=30;" vertex="1" parent="1">
          <mxGeometry x="7572.5" y="3697" width="165" height="40" as="geometry" />
        </mxCell>
        <mxCell id="8NAubKkpm3a8wYk_etbg-22" value="attributes: Any" style="rounded=0;whiteSpace=wrap;html=1;" vertex="1" parent="1">
          <mxGeometry x="7520" y="3907" width="290" height="40" as="geometry" />
        </mxCell>
        <mxCell id="8NAubKkpm3a8wYk_etbg-23" value="componentId: string" style="rounded=0;whiteSpace=wrap;html=1;" vertex="1" parent="1">
          <mxGeometry x="7520" y="3777" width="290" height="40" as="geometry" />
        </mxCell>
        <mxCell id="8NAubKkpm3a8wYk_etbg-24" value="partId: string | null" style="rounded=0;whiteSpace=wrap;html=1;" vertex="1" parent="1">
          <mxGeometry x="7520" y="3837" width="290" height="40" as="geometry" />
        </mxCell>
        <mxCell id="8NAubKkpm3a8wYk_etbg-25" value="text: string" style="rounded=0;whiteSpace=wrap;html=1;" vertex="1" parent="1">
          <mxGeometry x="7520" y="3977" width="290" height="40" as="geometry" />
        </mxCell>
        <mxCell id="8NAubKkpm3a8wYk_etbg-26" value="needRender: boolean" style="rounded=0;whiteSpace=wrap;html=1;" vertex="1" parent="1">
          <mxGeometry x="7520" y="4052" width="290" height="40" as="geometry" />
        </mxCell>
        <mxCell id="8NAubKkpm3a8wYk_etbg-27" value="" style="whiteSpace=wrap;html=1;" vertex="1" parent="1">
          <mxGeometry x="8080" y="2770" width="330" height="700" as="geometry" />
        </mxCell>
        <mxCell id="8NAubKkpm3a8wYk_etbg-28" value="INode" style="text;html=1;strokeColor=none;fillColor=none;align=center;verticalAlign=middle;whiteSpace=wrap;rounded=0;fontSize=30;" vertex="1" parent="1">
          <mxGeometry x="8152.5" y="2780" width="165" height="40" as="geometry" />
        </mxCell>
        <mxCell id="8NAubKkpm3a8wYk_etbg-35" value="id: string" style="rounded=0;whiteSpace=wrap;html=1;" vertex="1" parent="1">
          <mxGeometry x="8100" y="2840" width="290" height="40" as="geometry" />
        </mxCell>
        <mxCell id="8NAubKkpm3a8wYk_etbg-36" value="root: boolean;" style="rounded=0;whiteSpace=wrap;html=1;" vertex="1" parent="1">
          <mxGeometry x="8100" y="2890" width="290" height="40" as="geometry" />
        </mxCell>
        <mxCell id="8NAubKkpm3a8wYk_etbg-37" value="leaf: boolean;" style="rounded=0;whiteSpace=wrap;html=1;" vertex="1" parent="1">
          <mxGeometry x="8100" y="2950" width="290" height="40" as="geometry" />
        </mxCell>
        <mxCell id="8NAubKkpm3a8wYk_etbg-38" value="contentLength: number;" style="rounded=0;whiteSpace=wrap;html=1;" vertex="1" parent="1">
          <mxGeometry x="8100" y="3010" width="290" height="40" as="geometry" />
        </mxCell>
        <mxCell id="8NAubKkpm3a8wYk_etbg-39" value="size: number;" style="rounded=0;whiteSpace=wrap;html=1;" vertex="1" parent="1">
          <mxGeometry x="8100" y="3060" width="290" height="40" as="geometry" />
        </mxCell>
        <mxCell id="8NAubKkpm3a8wYk_etbg-40" value="&amp;nbsp;parent: TNode | null;" style="rounded=0;whiteSpace=wrap;html=1;" vertex="1" parent="1">
          <mxGeometry x="8100" y="3115" width="290" height="40" as="geometry" />
        </mxCell>
        <mxCell id="8NAubKkpm3a8wYk_etbg-41" value="&amp;nbsp; children: INodeList&amp;lt;TNode&amp;gt;;" style="rounded=0;whiteSpace=wrap;html=1;" vertex="1" parent="1">
          <mxGeometry x="8100" y="3180" width="290" height="40" as="geometry" />
        </mxCell>
        <mxCell id="8NAubKkpm3a8wYk_etbg-42" value="&lt;div&gt;&amp;nbsp;firstChild: TNode | null;&lt;/div&gt;&lt;div&gt;&amp;nbsp;lastChild: TNode | null;&lt;/div&gt;" style="rounded=0;whiteSpace=wrap;html=1;" vertex="1" parent="1">
          <mxGeometry x="8100" y="3240" width="290" height="60" as="geometry" />
        </mxCell>
        <mxCell id="8NAubKkpm3a8wYk_etbg-43" value="&lt;div&gt;previousSibling: TNode | null;&lt;/div&gt;&lt;div&gt;&lt;span style=&quot;background-color: initial;&quot;&gt;nextSibling: TNode | null;&lt;/span&gt;&lt;/div&gt;" style="rounded=0;whiteSpace=wrap;html=1;" vertex="1" parent="1">
          <mxGeometry x="8100" y="3320" width="290" height="60" as="geometry" />
        </mxCell>
        <mxCell id="8NAubKkpm3a8wYk_etbg-44" value="&lt;div&gt;previousCrossParentSibling: TNode | null;&lt;/div&gt;&lt;div&gt;&lt;span style=&quot;background-color: initial;&quot;&gt;nextCrossParentSibling: TNode | null;&lt;/span&gt;&lt;/div&gt;" style="rounded=0;whiteSpace=wrap;html=1;" vertex="1" parent="1">
          <mxGeometry x="8100" y="3390" width="290" height="60" as="geometry" />
        </mxCell>
        <mxCell id="8NAubKkpm3a8wYk_etbg-50" value="&lt;div style=&quot;font-size: 20px;&quot;&gt;通过parse方法将INode解析为IModelRoot&lt;/div&gt;" style="shape=note;whiteSpace=wrap;html=1;backgroundOutline=1;fontColor=#000000;darkOpacity=0.05;fillColor=#FFF9B2;strokeColor=none;fillStyle=solid;direction=west;gradientDirection=north;gradientColor=#FFF2A1;shadow=1;size=20;pointerEvents=1;fontSize=20;" vertex="1" parent="1">
          <mxGeometry x="-10" y="-80" width="250" height="140" as="geometry" />
        </mxCell>
        <mxCell id="8NAubKkpm3a8wYk_etbg-52" value="" style="shape=flexArrow;endArrow=classic;html=1;rounded=0;exitX=0.47;exitY=0.95;exitDx=0;exitDy=0;exitPerimeter=0;entryX=0.5;entryY=0;entryDx=0;entryDy=0;" edge="1" parent="1" source="8NAubKkpm3a8wYk_etbg-1" target="8NAubKkpm3a8wYk_etbg-56">
          <mxGeometry width="50" height="50" relative="1" as="geometry">
            <mxPoint x="370" y="90" as="sourcePoint" />
            <mxPoint x="240" y="340" as="targetPoint" />
          </mxGeometry>
        </mxCell>
        <mxCell id="8NAubKkpm3a8wYk_etbg-53" value="详细的执行过程" style="edgeLabel;html=1;align=center;verticalAlign=middle;resizable=0;points=[];fontSize=20;" vertex="1" connectable="0" parent="8NAubKkpm3a8wYk_etbg-52">
          <mxGeometry x="-0.4657" y="-1" relative="1" as="geometry">
            <mxPoint x="-179" y="38" as="offset" />
          </mxGeometry>
        </mxCell>
        <mxCell id="8NAubKkpm3a8wYk_etbg-58" style="edgeStyle=orthogonalEdgeStyle;rounded=0;orthogonalLoop=1;jettySize=auto;html=1;" edge="1" parent="1" source="8NAubKkpm3a8wYk_etbg-56" target="8NAubKkpm3a8wYk_etbg-57">
          <mxGeometry relative="1" as="geometry" />
        </mxCell>
        <mxCell id="8NAubKkpm3a8wYk_etbg-56" value="serviceRegistry = new ServiceRegistry()" style="rounded=0;whiteSpace=wrap;html=1;" vertex="1" parent="1">
          <mxGeometry x="-1112" y="290" width="290" height="40" as="geometry" />
        </mxCell>
        <mxCell id="8NAubKkpm3a8wYk_etbg-61" style="edgeStyle=orthogonalEdgeStyle;rounded=0;orthogonalLoop=1;jettySize=auto;html=1;" edge="1" parent="1" source="8NAubKkpm3a8wYk_etbg-57" target="8NAubKkpm3a8wYk_etbg-60">
          <mxGeometry relative="1" as="geometry" />
        </mxCell>
        <mxCell id="8NAubKkpm3a8wYk_etbg-57" value="configService = new ConfigService(buildBaseConfig(), config)" style="rounded=0;whiteSpace=wrap;html=1;" vertex="1" parent="1">
          <mxGeometry x="-1152" y="530" width="370" height="40" as="geometry" />
        </mxCell>
        <mxCell id="8NAubKkpm3a8wYk_etbg-63" style="edgeStyle=orthogonalEdgeStyle;rounded=0;orthogonalLoop=1;jettySize=auto;html=1;" edge="1" parent="1" source="8NAubKkpm3a8wYk_etbg-60" target="8NAubKkpm3a8wYk_etbg-62">
          <mxGeometry relative="1" as="geometry" />
        </mxCell>
        <mxCell id="8NAubKkpm3a8wYk_etbg-60" value="componentService = new ComponentService(configService, serviceRegistry)" style="rounded=0;whiteSpace=wrap;html=1;" vertex="1" parent="1">
          <mxGeometry x="-1180" y="770" width="426" height="40" as="geometry" />
        </mxCell>
        <mxCell id="8NAubKkpm3a8wYk_etbg-65" style="edgeStyle=orthogonalEdgeStyle;rounded=0;orthogonalLoop=1;jettySize=auto;html=1;" edge="1" parent="1" source="8NAubKkpm3a8wYk_etbg-62" target="8NAubKkpm3a8wYk_etbg-64">
          <mxGeometry relative="1" as="geometry" />
        </mxCell>
        <mxCell id="8NAubKkpm3a8wYk_etbg-62" value="component = componentService.getComponent(node.componentId)" style="rounded=0;whiteSpace=wrap;html=1;" vertex="1" parent="1">
          <mxGeometry x="-1180" y="1010" width="426" height="40" as="geometry" />
        </mxCell>
        <mxCell id="8NAubKkpm3a8wYk_etbg-160" style="edgeStyle=orthogonalEdgeStyle;rounded=0;orthogonalLoop=1;jettySize=auto;html=1;dashed=1;dashPattern=8 8;" edge="1" parent="1" source="8NAubKkpm3a8wYk_etbg-64" target="8NAubKkpm3a8wYk_etbg-159">
          <mxGeometry relative="1" as="geometry" />
        </mxCell>
        <mxCell id="8NAubKkpm3a8wYk_etbg-64" value="component.buildModelNode()" style="rounded=0;whiteSpace=wrap;html=1;" vertex="1" parent="1">
          <mxGeometry x="-1180" y="1170" width="426" height="40" as="geometry" />
        </mxCell>
        <mxCell id="8NAubKkpm3a8wYk_etbg-66" value="" style="whiteSpace=wrap;html=1;" vertex="1" parent="1">
          <mxGeometry x="-1970" y="685" width="330" height="570" as="geometry" />
        </mxCell>
        <mxCell id="8NAubKkpm3a8wYk_etbg-67" value="ComponentService" style="text;html=1;strokeColor=none;fillColor=none;align=center;verticalAlign=middle;whiteSpace=wrap;rounded=0;fontSize=30;" vertex="1" parent="1">
          <mxGeometry x="-1950" y="700" width="297.5" height="40" as="geometry" />
        </mxCell>
        <mxCell id="8NAubKkpm3a8wYk_etbg-75" style="edgeStyle=orthogonalEdgeStyle;rounded=0;orthogonalLoop=1;jettySize=auto;html=1;" edge="1" parent="1" source="8NAubKkpm3a8wYk_etbg-72" target="8NAubKkpm3a8wYk_etbg-74">
          <mxGeometry relative="1" as="geometry" />
        </mxCell>
        <mxCell id="8NAubKkpm3a8wYk_etbg-72" value="构造函数" style="rounded=0;whiteSpace=wrap;html=1;" vertex="1" parent="1">
          <mxGeometry x="-1950" y="1160" width="290" height="40" as="geometry" />
        </mxCell>
        <mxCell id="8NAubKkpm3a8wYk_etbg-73" style="edgeStyle=orthogonalEdgeStyle;rounded=0;orthogonalLoop=1;jettySize=auto;html=1;entryX=1;entryY=0.5;entryDx=0;entryDy=0;dashed=1;dashPattern=12 12;" edge="1" parent="1" source="8NAubKkpm3a8wYk_etbg-60" target="8NAubKkpm3a8wYk_etbg-72">
          <mxGeometry relative="1" as="geometry">
            <Array as="points">
              <mxPoint x="-1520" y="790" />
              <mxPoint x="-1520" y="1180" />
            </Array>
          </mxGeometry>
        </mxCell>
        <mxCell id="8NAubKkpm3a8wYk_etbg-74" value="将configService.getConfig().components中&lt;br&gt;所有的组件以及PageComponent和LineComponent&lt;br&gt;注册到ComponentRegistry中" style="rounded=0;whiteSpace=wrap;html=1;" vertex="1" parent="1">
          <mxGeometry x="-1960" y="1330" width="310" height="80" as="geometry" />
        </mxCell>
        <mxCell id="8NAubKkpm3a8wYk_etbg-76" value="getComponent(componentId: string)" style="rounded=0;whiteSpace=wrap;html=1;" vertex="1" parent="1">
          <mxGeometry x="-1942.5" y="1010" width="260" height="40" as="geometry" />
        </mxCell>
        <mxCell id="8NAubKkpm3a8wYk_etbg-92" style="edgeStyle=orthogonalEdgeStyle;rounded=0;orthogonalLoop=1;jettySize=auto;html=1;entryX=0.997;entryY=0.075;entryDx=0;entryDy=0;entryPerimeter=0;dashed=1;" edge="1" parent="1" source="8NAubKkpm3a8wYk_etbg-89" target="8NAubKkpm3a8wYk_etbg-90">
          <mxGeometry relative="1" as="geometry" />
        </mxCell>
        <mxCell id="8NAubKkpm3a8wYk_etbg-93" value="含有" style="edgeLabel;html=1;align=center;verticalAlign=middle;resizable=0;points=[];" vertex="1" connectable="0" parent="8NAubKkpm3a8wYk_etbg-92">
          <mxGeometry x="-0.1568" y="-1" relative="1" as="geometry">
            <mxPoint x="104" y="1" as="offset" />
          </mxGeometry>
        </mxCell>
        <mxCell id="8NAubKkpm3a8wYk_etbg-89" value="registry: IComponentRegistry&amp;nbsp;= new ComponentRegistry()" style="rounded=0;whiteSpace=wrap;html=1;" vertex="1" parent="1">
          <mxGeometry x="-1905" y="810" width="185" height="40" as="geometry" />
        </mxCell>
        <mxCell id="8NAubKkpm3a8wYk_etbg-77" style="edgeStyle=orthogonalEdgeStyle;rounded=0;orthogonalLoop=1;jettySize=auto;html=1;entryX=1;entryY=0.5;entryDx=0;entryDy=0;dashed=1;dashPattern=8 8;" edge="1" parent="1" source="8NAubKkpm3a8wYk_etbg-62" target="8NAubKkpm3a8wYk_etbg-76">
          <mxGeometry relative="1" as="geometry">
            <Array as="points">
              <mxPoint x="-1390" y="1030" />
              <mxPoint x="-1390" y="1030" />
            </Array>
          </mxGeometry>
        </mxCell>
        <mxCell id="8NAubKkpm3a8wYk_etbg-90" value="" style="whiteSpace=wrap;html=1;" vertex="1" parent="1">
          <mxGeometry x="-2700" y="710" width="330" height="570" as="geometry" />
        </mxCell>
        <mxCell id="8NAubKkpm3a8wYk_etbg-91" value="ComponentRegistry" style="text;html=1;strokeColor=none;fillColor=none;align=center;verticalAlign=middle;whiteSpace=wrap;rounded=0;fontSize=30;" vertex="1" parent="1">
          <mxGeometry x="-2683.75" y="720" width="297.5" height="40" as="geometry" />
        </mxCell>
        <mxCell id="8NAubKkpm3a8wYk_etbg-94" value="componentsMap: Map&amp;lt;string, IComponent&amp;gt;" style="rounded=0;whiteSpace=wrap;html=1;" vertex="1" parent="1">
          <mxGeometry x="-2666" y="820" width="256" height="40" as="geometry" />
        </mxCell>
        <mxCell id="8NAubKkpm3a8wYk_etbg-95" value="pageComponent?: IPageComponent" style="rounded=0;whiteSpace=wrap;html=1;" vertex="1" parent="1">
          <mxGeometry x="-2666" y="880" width="256" height="40" as="geometry" />
        </mxCell>
        <mxCell id="8NAubKkpm3a8wYk_etbg-96" value="lineComponent?: ILineComponent" style="rounded=0;whiteSpace=wrap;html=1;" vertex="1" parent="1">
          <mxGeometry x="-2666" y="940" width="256" height="40" as="geometry" />
        </mxCell>
        <mxCell id="8NAubKkpm3a8wYk_etbg-107" style="edgeStyle=orthogonalEdgeStyle;rounded=0;orthogonalLoop=1;jettySize=auto;html=1;" edge="1" parent="1" source="8NAubKkpm3a8wYk_etbg-97">
          <mxGeometry relative="1" as="geometry">
            <mxPoint x="-2760" y="1090" as="targetPoint" />
          </mxGeometry>
        </mxCell>
        <mxCell id="8NAubKkpm3a8wYk_etbg-97" value="registerComponent()" style="rounded=0;whiteSpace=wrap;html=1;" vertex="1" parent="1">
          <mxGeometry x="-2666" y="1070" width="256" height="40" as="geometry" />
        </mxCell>
        <mxCell id="8NAubKkpm3a8wYk_etbg-110" style="edgeStyle=orthogonalEdgeStyle;rounded=0;orthogonalLoop=1;jettySize=auto;html=1;entryX=1;entryY=0.5;entryDx=0;entryDy=0;" edge="1" parent="1" source="8NAubKkpm3a8wYk_etbg-98" target="8NAubKkpm3a8wYk_etbg-108">
          <mxGeometry relative="1" as="geometry" />
        </mxCell>
        <mxCell id="8NAubKkpm3a8wYk_etbg-98" value="registerPageComponent()" style="rounded=0;whiteSpace=wrap;html=1;" vertex="1" parent="1">
          <mxGeometry x="-2663" y="1129" width="256" height="40" as="geometry" />
        </mxCell>
        <mxCell id="8NAubKkpm3a8wYk_etbg-111" style="edgeStyle=orthogonalEdgeStyle;rounded=0;orthogonalLoop=1;jettySize=auto;html=1;entryX=1;entryY=0.5;entryDx=0;entryDy=0;" edge="1" parent="1" source="8NAubKkpm3a8wYk_etbg-99" target="8NAubKkpm3a8wYk_etbg-109">
          <mxGeometry relative="1" as="geometry" />
        </mxCell>
        <mxCell id="8NAubKkpm3a8wYk_etbg-99" value="registerLineComponent()" style="rounded=0;whiteSpace=wrap;html=1;" vertex="1" parent="1">
          <mxGeometry x="-2666" y="1200" width="256" height="40" as="geometry" />
        </mxCell>
        <mxCell id="8NAubKkpm3a8wYk_etbg-101" value="getComponent()" style="rounded=0;whiteSpace=wrap;html=1;" vertex="1" parent="1">
          <mxGeometry x="-2666" y="1000" width="256" height="40" as="geometry" />
        </mxCell>
        <mxCell id="8NAubKkpm3a8wYk_etbg-103" style="edgeStyle=orthogonalEdgeStyle;rounded=0;orthogonalLoop=1;jettySize=auto;html=1;entryX=1;entryY=0.5;entryDx=0;entryDy=0;" edge="1" parent="1" source="8NAubKkpm3a8wYk_etbg-74" target="8NAubKkpm3a8wYk_etbg-97">
          <mxGeometry relative="1" as="geometry">
            <Array as="points">
              <mxPoint x="-1990" y="1340" />
              <mxPoint x="-1990" y="1090" />
            </Array>
          </mxGeometry>
        </mxCell>
        <mxCell id="8NAubKkpm3a8wYk_etbg-104" style="edgeStyle=orthogonalEdgeStyle;rounded=0;orthogonalLoop=1;jettySize=auto;html=1;entryX=1;entryY=0.5;entryDx=0;entryDy=0;" edge="1" parent="1" source="8NAubKkpm3a8wYk_etbg-74" target="8NAubKkpm3a8wYk_etbg-98">
          <mxGeometry relative="1" as="geometry">
            <Array as="points">
              <mxPoint x="-2183" y="1350" />
              <mxPoint x="-2183" y="1150" />
            </Array>
          </mxGeometry>
        </mxCell>
        <mxCell id="8NAubKkpm3a8wYk_etbg-102" style="edgeStyle=orthogonalEdgeStyle;rounded=0;orthogonalLoop=1;jettySize=auto;html=1;entryX=1;entryY=0.5;entryDx=0;entryDy=0;" edge="1" parent="1" source="8NAubKkpm3a8wYk_etbg-76" target="8NAubKkpm3a8wYk_etbg-101">
          <mxGeometry relative="1" as="geometry">
            <Array as="points">
              <mxPoint x="-2060" y="1020" />
              <mxPoint x="-2060" y="1020" />
            </Array>
          </mxGeometry>
        </mxCell>
        <mxCell id="8NAubKkpm3a8wYk_etbg-105" style="edgeStyle=orthogonalEdgeStyle;rounded=0;orthogonalLoop=1;jettySize=auto;html=1;entryX=1;entryY=0.5;entryDx=0;entryDy=0;" edge="1" parent="1" source="8NAubKkpm3a8wYk_etbg-74" target="8NAubKkpm3a8wYk_etbg-99">
          <mxGeometry relative="1" as="geometry">
            <Array as="points">
              <mxPoint x="-2250" y="1370" />
              <mxPoint x="-2250" y="1220" />
            </Array>
          </mxGeometry>
        </mxCell>
        <mxCell id="8NAubKkpm3a8wYk_etbg-106" value="注册到componentsMap中去" style="rounded=0;whiteSpace=wrap;html=1;" vertex="1" parent="1">
          <mxGeometry x="-3022" y="1070" width="256" height="40" as="geometry" />
        </mxCell>
        <mxCell id="8NAubKkpm3a8wYk_etbg-108" value="注册到pageComponent中去" style="rounded=0;whiteSpace=wrap;html=1;" vertex="1" parent="1">
          <mxGeometry x="-3022" y="1130" width="256" height="40" as="geometry" />
        </mxCell>
        <mxCell id="8NAubKkpm3a8wYk_etbg-109" value="注册到lineComponent中去" style="rounded=0;whiteSpace=wrap;html=1;" vertex="1" parent="1">
          <mxGeometry x="-3022" y="1200" width="256" height="40" as="geometry" />
        </mxCell>
        <mxCell id="8NAubKkpm3a8wYk_etbg-125" style="edgeStyle=orthogonalEdgeStyle;rounded=0;orthogonalLoop=1;jettySize=auto;html=1;entryX=0;entryY=0.5;entryDx=0;entryDy=0;" edge="1" parent="1" target="8NAubKkpm3a8wYk_etbg-124">
          <mxGeometry relative="1" as="geometry">
            <mxPoint x="-1595" y="2460" as="sourcePoint" />
            <Array as="points">
              <mxPoint x="-1780" y="2460" />
              <mxPoint x="-1780" y="2840" />
            </Array>
          </mxGeometry>
        </mxCell>
        <mxCell id="8NAubKkpm3a8wYk_etbg-133" style="edgeStyle=orthogonalEdgeStyle;rounded=0;orthogonalLoop=1;jettySize=auto;html=1;entryX=0.5;entryY=1;entryDx=0;entryDy=0;endArrow=block;endFill=0;endSize=24;dashed=1;dashPattern=12 12;" edge="1" parent="1" source="8NAubKkpm3a8wYk_etbg-126" target="8NAubKkpm3a8wYk_etbg-20">
          <mxGeometry relative="1" as="geometry" />
        </mxCell>
        <mxCell id="8NAubKkpm3a8wYk_etbg-134" value="实现接口" style="edgeLabel;html=1;align=center;verticalAlign=middle;resizable=0;points=[];" vertex="1" connectable="0" parent="8NAubKkpm3a8wYk_etbg-133">
          <mxGeometry x="-0.2833" relative="1" as="geometry">
            <mxPoint as="offset" />
          </mxGeometry>
        </mxCell>
        <mxCell id="8NAubKkpm3a8wYk_etbg-382" style="edgeStyle=orthogonalEdgeStyle;rounded=0;orthogonalLoop=1;jettySize=auto;html=1;entryX=0.5;entryY=1;entryDx=0;entryDy=0;endArrow=block;endFill=0;endSize=24;" edge="1" parent="1" source="8NAubKkpm3a8wYk_etbg-126" target="8NAubKkpm3a8wYk_etbg-375">
          <mxGeometry relative="1" as="geometry">
            <Array as="points">
              <mxPoint x="7800" y="4280" />
              <mxPoint x="8255" y="4280" />
            </Array>
          </mxGeometry>
        </mxCell>
        <mxCell id="8NAubKkpm3a8wYk_etbg-383" value="继承类" style="edgeLabel;html=1;align=center;verticalAlign=middle;resizable=0;points=[];" vertex="1" connectable="0" parent="8NAubKkpm3a8wYk_etbg-382">
          <mxGeometry x="-0.316" y="-1" relative="1" as="geometry">
            <mxPoint as="offset" />
          </mxGeometry>
        </mxCell>
        <mxCell id="8NAubKkpm3a8wYk_etbg-126" value="" style="whiteSpace=wrap;html=1;" vertex="1" parent="1">
          <mxGeometry x="7420" y="4337" width="490" height="440" as="geometry" />
        </mxCell>
        <mxCell id="8NAubKkpm3a8wYk_etbg-127" value="ModelNode" style="text;html=1;strokeColor=none;fillColor=none;align=center;verticalAlign=middle;whiteSpace=wrap;rounded=0;fontSize=30;" vertex="1" parent="1">
          <mxGeometry x="7582.5" y="4347" width="165" height="40" as="geometry" />
        </mxCell>
        <mxCell id="8NAubKkpm3a8wYk_etbg-128" value="internalNeedRender = true" style="rounded=0;whiteSpace=wrap;html=1;" vertex="1" parent="1">
          <mxGeometry x="7530" y="4557" width="290" height="40" as="geometry" />
        </mxCell>
        <mxCell id="8NAubKkpm3a8wYk_etbg-129" value="internalText: string" style="rounded=0;whiteSpace=wrap;html=1;" vertex="1" parent="1">
          <mxGeometry x="7530" y="4427" width="290" height="40" as="geometry" />
        </mxCell>
        <mxCell id="8NAubKkpm3a8wYk_etbg-130" value="internalSize?: number" style="rounded=0;whiteSpace=wrap;html=1;" vertex="1" parent="1">
          <mxGeometry x="7530" y="4487" width="290" height="40" as="geometry" />
        </mxCell>
        <mxCell id="8NAubKkpm3a8wYk_etbg-131" value="childDidUpdateDisposableMap: Map&amp;lt;string, IDisposable&amp;gt;" style="rounded=0;whiteSpace=wrap;html=1;" vertex="1" parent="1">
          <mxGeometry x="7505" y="4637" width="340" height="40" as="geometry" />
        </mxCell>
        <mxCell id="8NAubKkpm3a8wYk_etbg-132" value="didUpdateEventEmitter:&amp;nbsp;EventEmitter&amp;lt;IDidUpdateModelNodeEvent&amp;gt;" style="rounded=0;whiteSpace=wrap;html=1;" vertex="1" parent="1">
          <mxGeometry x="7475" y="4707" width="400" height="40" as="geometry" />
        </mxCell>
        <mxCell id="8NAubKkpm3a8wYk_etbg-153" style="edgeStyle=orthogonalEdgeStyle;rounded=0;orthogonalLoop=1;jettySize=auto;html=1;entryX=0.5;entryY=1;entryDx=0;entryDy=0;" edge="1" parent="1" source="8NAubKkpm3a8wYk_etbg-135" target="8NAubKkpm3a8wYk_etbg-126">
          <mxGeometry relative="1" as="geometry" />
        </mxCell>
        <mxCell id="8NAubKkpm3a8wYk_etbg-135" value="" style="whiteSpace=wrap;html=1;" vertex="1" parent="1">
          <mxGeometry x="7420" y="4905" width="490" height="225" as="geometry" />
        </mxCell>
        <mxCell id="8NAubKkpm3a8wYk_etbg-136" value="ModelBranch" style="text;html=1;strokeColor=none;fillColor=none;align=center;verticalAlign=middle;whiteSpace=wrap;rounded=0;fontSize=30;" vertex="1" parent="1">
          <mxGeometry x="7582.5" y="4915" width="165" height="40" as="geometry" />
        </mxCell>
        <mxCell id="8NAubKkpm3a8wYk_etbg-156" style="edgeStyle=orthogonalEdgeStyle;rounded=0;orthogonalLoop=1;jettySize=auto;html=1;entryX=0.48;entryY=0.997;entryDx=0;entryDy=0;entryPerimeter=0;endArrow=block;endFill=0;endSize=24;" edge="1" parent="1" source="8NAubKkpm3a8wYk_etbg-142" target="8NAubKkpm3a8wYk_etbg-135">
          <mxGeometry relative="1" as="geometry" />
        </mxCell>
        <mxCell id="8NAubKkpm3a8wYk_etbg-142" value="" style="whiteSpace=wrap;html=1;" vertex="1" parent="1">
          <mxGeometry x="7410" y="5267" width="490" height="260" as="geometry" />
        </mxCell>
        <mxCell id="8NAubKkpm3a8wYk_etbg-143" value="ModelParagraph" style="text;html=1;strokeColor=none;fillColor=none;align=center;verticalAlign=middle;whiteSpace=wrap;rounded=0;fontSize=30;" vertex="1" parent="1">
          <mxGeometry x="7560" y="5294" width="165" height="40" as="geometry" />
        </mxCell>
        <mxCell id="8NAubKkpm3a8wYk_etbg-154" style="edgeStyle=orthogonalEdgeStyle;rounded=0;orthogonalLoop=1;jettySize=auto;html=1;entryX=0.5;entryY=0;entryDx=0;entryDy=0;" edge="1" parent="1" source="8NAubKkpm3a8wYk_etbg-145" target="8NAubKkpm3a8wYk_etbg-155">
          <mxGeometry relative="1" as="geometry">
            <mxPoint x="7360" y="5377" as="targetPoint" />
            <Array as="points" />
          </mxGeometry>
        </mxCell>
        <mxCell id="8NAubKkpm3a8wYk_etbg-145" value="partId" style="rounded=0;whiteSpace=wrap;html=1;" vertex="1" parent="1">
          <mxGeometry x="7515" y="5447" width="290" height="40" as="geometry" />
        </mxCell>
        <mxCell id="8NAubKkpm3a8wYk_etbg-151" value="构造函数&lt;br&gt;这里会验证期望必须有子节点" style="rounded=0;whiteSpace=wrap;html=1;" vertex="1" parent="1">
          <mxGeometry x="7515" y="5000" width="290" height="40" as="geometry" />
        </mxCell>
        <mxCell id="8NAubKkpm3a8wYk_etbg-155" value="&#39;paragraph&#39;" style="rounded=0;whiteSpace=wrap;html=1;" vertex="1" parent="1">
          <mxGeometry x="7515" y="5637" width="290" height="40" as="geometry" />
        </mxCell>
        <mxCell id="8NAubKkpm3a8wYk_etbg-157" value="构造函数" style="rounded=0;whiteSpace=wrap;html=1;" vertex="1" parent="1">
          <mxGeometry x="7515" y="5380" width="290" height="40" as="geometry" />
        </mxCell>
        <mxCell id="8NAubKkpm3a8wYk_etbg-159" value="注意这里对INode的所有子节点也调用buildModelNode()方法构建成了modelNode" style="shape=note;whiteSpace=wrap;html=1;backgroundOutline=1;fontColor=#000000;darkOpacity=0.05;fillColor=#FFF9B2;strokeColor=none;fillStyle=solid;direction=west;gradientDirection=north;gradientColor=#FFF2A1;shadow=1;size=20;pointerEvents=1;fontSize=20;" vertex="1" parent="1">
          <mxGeometry x="-610" y="1110" width="360" height="160" as="geometry" />
        </mxCell>
        <mxCell id="8NAubKkpm3a8wYk_etbg-161" value="" style="whiteSpace=wrap;html=1;" vertex="1" parent="1">
          <mxGeometry x="2860" y="3977" width="330" height="459" as="geometry" />
        </mxCell>
        <mxCell id="8NAubKkpm3a8wYk_etbg-162" value="ViewService" style="text;html=1;strokeColor=none;fillColor=none;align=center;verticalAlign=middle;whiteSpace=wrap;rounded=0;fontSize=30;" vertex="1" parent="1">
          <mxGeometry x="2880" y="3992" width="297.5" height="40" as="geometry" />
        </mxCell>
        <mxCell id="8NAubKkpm3a8wYk_etbg-163" value="cursor: ICursorView" style="rounded=0;whiteSpace=wrap;html=1;" vertex="1" parent="1">
          <mxGeometry x="2897.5" y="4136" width="255" height="40" as="geometry" />
        </mxCell>
        <mxCell id="8NAubKkpm3a8wYk_etbg-164" value="state: IViewState" style="rounded=0;whiteSpace=wrap;html=1;" vertex="1" parent="1">
          <mxGeometry x="2895" y="4072" width="260" height="40" as="geometry" />
        </mxCell>
        <mxCell id="8NAubKkpm3a8wYk_etbg-165" value="domController: IDOMController" style="rounded=0;whiteSpace=wrap;html=1;" vertex="1" parent="1">
          <mxGeometry x="2895" y="4216" width="255" height="40" as="geometry" />
        </mxCell>
        <mxCell id="8NAubKkpm3a8wYk_etbg-202" style="edgeStyle=orthogonalEdgeStyle;rounded=0;orthogonalLoop=1;jettySize=auto;html=1;entryX=0;entryY=0.5;entryDx=0;entryDy=0;" edge="1" parent="1" source="8NAubKkpm3a8wYk_etbg-166" target="8NAubKkpm3a8wYk_etbg-192">
          <mxGeometry relative="1" as="geometry">
            <Array as="points">
              <mxPoint x="3250" y="4306" />
              <mxPoint x="3250" y="4620" />
            </Array>
          </mxGeometry>
        </mxCell>
        <mxCell id="8NAubKkpm3a8wYk_etbg-166" value="attach()" style="rounded=0;whiteSpace=wrap;html=1;" vertex="1" parent="1">
          <mxGeometry x="2897.5" y="4286" width="255" height="40" as="geometry" />
        </mxCell>
        <mxCell id="8NAubKkpm3a8wYk_etbg-170" style="edgeStyle=orthogonalEdgeStyle;rounded=0;orthogonalLoop=1;jettySize=auto;html=1;" edge="1" parent="1" source="8NAubKkpm3a8wYk_etbg-167" target="8NAubKkpm3a8wYk_etbg-169">
          <mxGeometry relative="1" as="geometry" />
        </mxCell>
        <mxCell id="8NAubKkpm3a8wYk_etbg-167" value="构造函数" style="rounded=0;whiteSpace=wrap;html=1;" vertex="1" parent="1">
          <mxGeometry x="2897.5" y="4356" width="255" height="40" as="geometry" />
        </mxCell>
        <mxCell id="8NAubKkpm3a8wYk_etbg-172" style="edgeStyle=orthogonalEdgeStyle;rounded=0;orthogonalLoop=1;jettySize=auto;html=1;" edge="1" parent="1" source="8NAubKkpm3a8wYk_etbg-169" target="8NAubKkpm3a8wYk_etbg-171">
          <mxGeometry relative="1" as="geometry" />
        </mxCell>
        <mxCell id="8NAubKkpm3a8wYk_etbg-169" value="state = new ViewState" style="rounded=0;whiteSpace=wrap;html=1;" vertex="1" parent="1">
          <mxGeometry x="2897.5" y="4600" width="255" height="40" as="geometry" />
        </mxCell>
        <mxCell id="8NAubKkpm3a8wYk_etbg-174" style="edgeStyle=orthogonalEdgeStyle;rounded=0;orthogonalLoop=1;jettySize=auto;html=1;" edge="1" parent="1" source="8NAubKkpm3a8wYk_etbg-171" target="8NAubKkpm3a8wYk_etbg-173">
          <mxGeometry relative="1" as="geometry" />
        </mxCell>
        <mxCell id="8NAubKkpm3a8wYk_etbg-171" value="domController = new DOMController" style="rounded=0;whiteSpace=wrap;html=1;" vertex="1" parent="1">
          <mxGeometry x="2895" y="5069" width="255" height="40" as="geometry" />
        </mxCell>
        <mxCell id="8NAubKkpm3a8wYk_etbg-173" value="cursor = new CursorView" style="rounded=0;whiteSpace=wrap;html=1;" vertex="1" parent="1">
          <mxGeometry x="2895" y="5605" width="255" height="40" as="geometry" />
        </mxCell>
        <mxCell id="8NAubKkpm3a8wYk_etbg-175" style="edgeStyle=orthogonalEdgeStyle;rounded=0;orthogonalLoop=1;jettySize=auto;html=1;entryX=1;entryY=0.5;entryDx=0;entryDy=0;" edge="1" parent="1" source="8NAubKkpm3a8wYk_etbg-6" target="8NAubKkpm3a8wYk_etbg-11">
          <mxGeometry relative="1" as="geometry">
            <Array as="points">
              <mxPoint x="1345" y="680" />
            </Array>
          </mxGeometry>
        </mxCell>
        <mxCell id="8NAubKkpm3a8wYk_etbg-177" value="" style="whiteSpace=wrap;html=1;" vertex="1" parent="1">
          <mxGeometry x="3610" y="3910" width="330" height="459" as="geometry" />
        </mxCell>
        <mxCell id="8NAubKkpm3a8wYk_etbg-178" value="ViewState" style="text;html=1;strokeColor=none;fillColor=none;align=center;verticalAlign=middle;whiteSpace=wrap;rounded=0;fontSize=30;" vertex="1" parent="1">
          <mxGeometry x="3630" y="3925" width="297.5" height="40" as="geometry" />
        </mxCell>
        <mxCell id="8NAubKkpm3a8wYk_etbg-512" style="edgeStyle=orthogonalEdgeStyle;rounded=0;orthogonalLoop=1;jettySize=auto;html=1;" edge="1" parent="1" source="8NAubKkpm3a8wYk_etbg-182" target="8NAubKkpm3a8wYk_etbg-510">
          <mxGeometry relative="1" as="geometry" />
        </mxCell>
        <mxCell id="8NAubKkpm3a8wYk_etbg-182" value="attach()" style="rounded=0;whiteSpace=wrap;html=1;" vertex="1" parent="1">
          <mxGeometry x="3647.5" y="4219" width="255" height="40" as="geometry" />
        </mxCell>
        <mxCell id="8NAubKkpm3a8wYk_etbg-216" style="edgeStyle=orthogonalEdgeStyle;rounded=0;orthogonalLoop=1;jettySize=auto;html=1;" edge="1" parent="1" source="8NAubKkpm3a8wYk_etbg-183" target="8NAubKkpm3a8wYk_etbg-207">
          <mxGeometry relative="1" as="geometry" />
        </mxCell>
        <mxCell id="8NAubKkpm3a8wYk_etbg-183" value="构造函数" style="rounded=0;whiteSpace=wrap;html=1;" vertex="1" parent="1">
          <mxGeometry x="3647.5" y="4289" width="255" height="40" as="geometry" />
        </mxCell>
        <mxCell id="8NAubKkpm3a8wYk_etbg-184" value="" style="whiteSpace=wrap;html=1;" vertex="1" parent="1">
          <mxGeometry x="3587.75" y="5226" width="330" height="459" as="geometry" />
        </mxCell>
        <mxCell id="8NAubKkpm3a8wYk_etbg-185" value="DOMController" style="text;html=1;strokeColor=none;fillColor=none;align=center;verticalAlign=middle;whiteSpace=wrap;rounded=0;fontSize=30;" vertex="1" parent="1">
          <mxGeometry x="3607.75" y="5241" width="297.5" height="40" as="geometry" />
        </mxCell>
        <mxCell id="8NAubKkpm3a8wYk_etbg-186" value="attach()" style="rounded=0;whiteSpace=wrap;html=1;" vertex="1" parent="1">
          <mxGeometry x="3625.25" y="5535" width="255" height="40" as="geometry" />
        </mxCell>
        <mxCell id="8NAubKkpm3a8wYk_etbg-187" value="构造函数" style="rounded=0;whiteSpace=wrap;html=1;" vertex="1" parent="1">
          <mxGeometry x="3625.25" y="5605" width="255" height="40" as="geometry" />
        </mxCell>
        <mxCell id="8NAubKkpm3a8wYk_etbg-188" value="" style="whiteSpace=wrap;html=1;" vertex="1" parent="1">
          <mxGeometry x="3607.5" y="4680" width="330" height="459" as="geometry" />
        </mxCell>
        <mxCell id="8NAubKkpm3a8wYk_etbg-189" value="CursorView" style="text;html=1;strokeColor=none;fillColor=none;align=center;verticalAlign=middle;whiteSpace=wrap;rounded=0;fontSize=30;" vertex="1" parent="1">
          <mxGeometry x="3627.5" y="4695" width="297.5" height="40" as="geometry" />
        </mxCell>
        <mxCell id="8NAubKkpm3a8wYk_etbg-190" value="attach()" style="rounded=0;whiteSpace=wrap;html=1;" vertex="1" parent="1">
          <mxGeometry x="3645" y="4989" width="255" height="40" as="geometry" />
        </mxCell>
        <mxCell id="8NAubKkpm3a8wYk_etbg-191" value="构造函数" style="rounded=0;whiteSpace=wrap;html=1;" vertex="1" parent="1">
          <mxGeometry x="3645" y="5059" width="255" height="40" as="geometry" />
        </mxCell>
        <mxCell id="8NAubKkpm3a8wYk_etbg-196" style="edgeStyle=orthogonalEdgeStyle;rounded=0;orthogonalLoop=1;jettySize=auto;html=1;entryX=0.5;entryY=0;entryDx=0;entryDy=0;" edge="1" parent="1" source="8NAubKkpm3a8wYk_etbg-192" target="8NAubKkpm3a8wYk_etbg-194">
          <mxGeometry relative="1" as="geometry" />
        </mxCell>
        <mxCell id="8NAubKkpm3a8wYk_etbg-198" style="edgeStyle=orthogonalEdgeStyle;rounded=0;orthogonalLoop=1;jettySize=auto;html=1;entryX=0;entryY=0.75;entryDx=0;entryDy=0;dashed=1;dashPattern=12 12;" edge="1" parent="1" source="8NAubKkpm3a8wYk_etbg-192" target="8NAubKkpm3a8wYk_etbg-182">
          <mxGeometry relative="1" as="geometry" />
        </mxCell>
        <mxCell id="8NAubKkpm3a8wYk_etbg-192" value="state.attach()" style="rounded=0;whiteSpace=wrap;html=1;" vertex="1" parent="1">
          <mxGeometry x="3290" y="4600" width="255" height="40" as="geometry" />
        </mxCell>
        <mxCell id="8NAubKkpm3a8wYk_etbg-200" style="edgeStyle=orthogonalEdgeStyle;rounded=0;orthogonalLoop=1;jettySize=auto;html=1;dashed=1;dashPattern=12 12;" edge="1" parent="1" source="8NAubKkpm3a8wYk_etbg-193" target="8NAubKkpm3a8wYk_etbg-186">
          <mxGeometry relative="1" as="geometry" />
        </mxCell>
        <mxCell id="8NAubKkpm3a8wYk_etbg-193" value="domController.attach()" style="rounded=0;whiteSpace=wrap;html=1;" vertex="1" parent="1">
          <mxGeometry x="3283.75" y="5536" width="255" height="40" as="geometry" />
        </mxCell>
        <mxCell id="8NAubKkpm3a8wYk_etbg-197" style="edgeStyle=orthogonalEdgeStyle;rounded=0;orthogonalLoop=1;jettySize=auto;html=1;" edge="1" parent="1" source="8NAubKkpm3a8wYk_etbg-194" target="8NAubKkpm3a8wYk_etbg-193">
          <mxGeometry relative="1" as="geometry" />
        </mxCell>
        <mxCell id="8NAubKkpm3a8wYk_etbg-199" style="edgeStyle=orthogonalEdgeStyle;rounded=0;orthogonalLoop=1;jettySize=auto;html=1;dashed=1;dashPattern=12 12;" edge="1" parent="1" source="8NAubKkpm3a8wYk_etbg-194" target="8NAubKkpm3a8wYk_etbg-190">
          <mxGeometry relative="1" as="geometry" />
        </mxCell>
        <mxCell id="8NAubKkpm3a8wYk_etbg-194" value="cursor.attach()" style="rounded=0;whiteSpace=wrap;html=1;" vertex="1" parent="1">
          <mxGeometry x="3283.75" y="4997" width="255" height="40" as="geometry" />
        </mxCell>
        <mxCell id="8NAubKkpm3a8wYk_etbg-203" style="edgeStyle=orthogonalEdgeStyle;rounded=0;orthogonalLoop=1;jettySize=auto;html=1;entryX=0;entryY=0.5;entryDx=0;entryDy=0;dashed=1;dashPattern=12 12;" edge="1" parent="1" source="8NAubKkpm3a8wYk_etbg-169" target="8NAubKkpm3a8wYk_etbg-183">
          <mxGeometry relative="1" as="geometry">
            <Array as="points">
              <mxPoint x="3110" y="4480" />
              <mxPoint x="3310" y="4480" />
              <mxPoint x="3310" y="4309" />
            </Array>
          </mxGeometry>
        </mxCell>
        <mxCell id="8NAubKkpm3a8wYk_etbg-217" style="edgeStyle=orthogonalEdgeStyle;rounded=0;orthogonalLoop=1;jettySize=auto;html=1;entryX=0.522;entryY=0.063;entryDx=0;entryDy=0;entryPerimeter=0;" edge="1" parent="1" source="8NAubKkpm3a8wYk_etbg-207" target="8NAubKkpm3a8wYk_etbg-208">
          <mxGeometry relative="1" as="geometry" />
        </mxCell>
        <mxCell id="8NAubKkpm3a8wYk_etbg-207" value="layoutDoc = layoutService.getDoc()" style="rounded=0;whiteSpace=wrap;html=1;" vertex="1" parent="1">
          <mxGeometry x="4210" y="4410" width="255" height="40" as="geometry" />
        </mxCell>
        <mxCell id="8NAubKkpm3a8wYk_etbg-220" style="edgeStyle=orthogonalEdgeStyle;rounded=0;orthogonalLoop=1;jettySize=auto;html=1;entryX=0.522;entryY=0.033;entryDx=0;entryDy=0;entryPerimeter=0;" edge="1" parent="1" source="8NAubKkpm3a8wYk_etbg-208" target="8NAubKkpm3a8wYk_etbg-209">
          <mxGeometry relative="1" as="geometry" />
        </mxCell>
        <mxCell id="8NAubKkpm3a8wYk_etbg-208" value="renderDoc = renderService.getDoc()" style="rounded=0;whiteSpace=wrap;html=1;" vertex="1" parent="1">
          <mxGeometry x="4205" y="4560" width="255" height="40" as="geometry" />
        </mxCell>
        <mxCell id="8NAubKkpm3a8wYk_etbg-219" style="edgeStyle=orthogonalEdgeStyle;rounded=0;orthogonalLoop=1;jettySize=auto;html=1;" edge="1" parent="1" source="8NAubKkpm3a8wYk_etbg-209" target="8NAubKkpm3a8wYk_etbg-210">
          <mxGeometry relative="1" as="geometry" />
        </mxCell>
        <mxCell id="8NAubKkpm3a8wYk_etbg-445" style="edgeStyle=orthogonalEdgeStyle;rounded=0;orthogonalLoop=1;jettySize=auto;html=1;dashed=1;dashPattern=12 12;" edge="1" parent="1" source="8NAubKkpm3a8wYk_etbg-209" target="8NAubKkpm3a8wYk_etbg-444">
          <mxGeometry relative="1" as="geometry" />
        </mxCell>
        <mxCell id="8NAubKkpm3a8wYk_etbg-209" value="internalDoc = this.updateNode(null, layoutDoc, renderDoc)" style="rounded=0;whiteSpace=wrap;html=1;" vertex="1" parent="1">
          <mxGeometry x="4150" y="4750" width="350" height="50" as="geometry" />
        </mxCell>
        <mxCell id="8NAubKkpm3a8wYk_etbg-210" value="监听layoutService更新布局事件&lt;br&gt;layoutService.onDidUpdateLayoutState" style="rounded=0;whiteSpace=wrap;html=1;" vertex="1" parent="1">
          <mxGeometry x="4155" y="5023" width="340" height="55" as="geometry" />
        </mxCell>
        <mxCell id="8NAubKkpm3a8wYk_etbg-212" value="update()" style="rounded=0;whiteSpace=wrap;html=1;" vertex="1" parent="1">
          <mxGeometry x="3647.5" y="4140" width="255" height="40" as="geometry" />
        </mxCell>
        <mxCell id="8NAubKkpm3a8wYk_etbg-213" style="edgeStyle=orthogonalEdgeStyle;rounded=0;orthogonalLoop=1;jettySize=auto;html=1;entryX=1;entryY=0.5;entryDx=0;entryDy=0;dashed=1;dashPattern=1 2;strokeWidth=2;" edge="1" parent="1" source="8NAubKkpm3a8wYk_etbg-210" target="8NAubKkpm3a8wYk_etbg-212">
          <mxGeometry relative="1" as="geometry">
            <Array as="points">
              <mxPoint x="4080" y="5050" />
              <mxPoint x="4080" y="4160" />
            </Array>
          </mxGeometry>
        </mxCell>
        <mxCell id="8NAubKkpm3a8wYk_etbg-221" value="事件触发后回调update函数" style="edgeLabel;html=1;align=center;verticalAlign=middle;resizable=0;points=[];" vertex="1" connectable="0" parent="8NAubKkpm3a8wYk_etbg-213">
          <mxGeometry x="-0.4535" y="4" relative="1" as="geometry">
            <mxPoint x="4" y="118" as="offset" />
          </mxGeometry>
        </mxCell>
        <mxCell id="8NAubKkpm3a8wYk_etbg-222" value="" style="whiteSpace=wrap;html=1;" vertex="1" parent="1">
          <mxGeometry x="3110" y="2640" width="330" height="310" as="geometry" />
        </mxCell>
        <mxCell id="8NAubKkpm3a8wYk_etbg-223" value="LayoutService" style="text;html=1;strokeColor=none;fillColor=none;align=center;verticalAlign=middle;whiteSpace=wrap;rounded=0;fontSize=30;" vertex="1" parent="1">
          <mxGeometry x="3130" y="2655" width="297.5" height="40" as="geometry" />
        </mxCell>
        <mxCell id="8NAubKkpm3a8wYk_etbg-224" value="state: ILayoutState" style="rounded=0;whiteSpace=wrap;html=1;" vertex="1" parent="1">
          <mxGeometry x="3147.5" y="2740" width="255" height="40" as="geometry" />
        </mxCell>
        <mxCell id="8NAubKkpm3a8wYk_etbg-225" value="getDoc()" style="rounded=0;whiteSpace=wrap;html=1;" vertex="1" parent="1">
          <mxGeometry x="3147.5" y="2830" width="255" height="40" as="geometry" />
        </mxCell>
        <mxCell id="8NAubKkpm3a8wYk_etbg-226" value="" style="whiteSpace=wrap;html=1;" vertex="1" parent="1">
          <mxGeometry x="3900" y="2648.5" width="330" height="401.5" as="geometry" />
        </mxCell>
        <mxCell id="8NAubKkpm3a8wYk_etbg-227" value="LayoutState" style="text;html=1;strokeColor=none;fillColor=none;align=center;verticalAlign=middle;whiteSpace=wrap;rounded=0;fontSize=30;" vertex="1" parent="1">
          <mxGeometry x="3920" y="2663.5" width="297.5" height="40" as="geometry" />
        </mxCell>
        <mxCell id="8NAubKkpm3a8wYk_etbg-228" value="engine: ILayoutEngine" style="rounded=0;whiteSpace=wrap;html=1;" vertex="1" parent="1">
          <mxGeometry x="3937.5" y="2719" width="255" height="40" as="geometry" />
        </mxCell>
        <mxCell id="8NAubKkpm3a8wYk_etbg-229" value="internalDoc: ILayoutDoc" style="rounded=0;whiteSpace=wrap;html=1;" vertex="1" parent="1">
          <mxGeometry x="3941.25" y="2783.5" width="255" height="40" as="geometry" />
        </mxCell>
        <mxCell id="8NAubKkpm3a8wYk_etbg-235" style="edgeStyle=orthogonalEdgeStyle;rounded=0;orthogonalLoop=1;jettySize=auto;html=1;" edge="1" parent="1" source="8NAubKkpm3a8wYk_etbg-230" target="8NAubKkpm3a8wYk_etbg-234">
          <mxGeometry relative="1" as="geometry" />
        </mxCell>
        <mxCell id="8NAubKkpm3a8wYk_etbg-230" value="doc()" style="rounded=0;whiteSpace=wrap;html=1;" vertex="1" parent="1">
          <mxGeometry x="3950" y="2843" width="255" height="40" as="geometry" />
        </mxCell>
        <mxCell id="8NAubKkpm3a8wYk_etbg-233" style="edgeStyle=orthogonalEdgeStyle;rounded=0;orthogonalLoop=1;jettySize=auto;html=1;entryX=0;entryY=0.5;entryDx=0;entryDy=0;" edge="1" parent="1" source="8NAubKkpm3a8wYk_etbg-225" target="8NAubKkpm3a8wYk_etbg-230">
          <mxGeometry relative="1" as="geometry" />
        </mxCell>
        <mxCell id="8NAubKkpm3a8wYk_etbg-234" value="直接返回internalDoc" style="rounded=0;whiteSpace=wrap;html=1;" vertex="1" parent="1">
          <mxGeometry x="4370" y="2843" width="255" height="40" as="geometry" />
        </mxCell>
        <mxCell id="8NAubKkpm3a8wYk_etbg-239" style="edgeStyle=orthogonalEdgeStyle;rounded=0;orthogonalLoop=1;jettySize=auto;html=1;" edge="1" parent="1" source="8NAubKkpm3a8wYk_etbg-236" target="8NAubKkpm3a8wYk_etbg-238">
          <mxGeometry relative="1" as="geometry" />
        </mxCell>
        <mxCell id="8NAubKkpm3a8wYk_etbg-236" value="构造函数" style="rounded=0;whiteSpace=wrap;html=1;" vertex="1" parent="1">
          <mxGeometry x="3937.51" y="2993" width="255" height="40" as="geometry" />
        </mxCell>
        <mxCell id="8NAubKkpm3a8wYk_etbg-243" style="edgeStyle=orthogonalEdgeStyle;rounded=0;orthogonalLoop=1;jettySize=auto;html=1;" edge="1" parent="1" source="8NAubKkpm3a8wYk_etbg-237" target="8NAubKkpm3a8wYk_etbg-241">
          <mxGeometry relative="1" as="geometry" />
        </mxCell>
        <mxCell id="8NAubKkpm3a8wYk_etbg-237" value="internalDoc = engine.updateDoc(null, doc)" style="rounded=0;whiteSpace=wrap;html=1;fillColor=#99FF99;" vertex="1" parent="1">
          <mxGeometry x="3930.63" y="3200" width="268.75" height="40" as="geometry" />
        </mxCell>
        <mxCell id="8NAubKkpm3a8wYk_etbg-240" style="edgeStyle=orthogonalEdgeStyle;rounded=0;orthogonalLoop=1;jettySize=auto;html=1;" edge="1" parent="1" source="8NAubKkpm3a8wYk_etbg-238" target="8NAubKkpm3a8wYk_etbg-237">
          <mxGeometry relative="1" as="geometry" />
        </mxCell>
        <mxCell id="8NAubKkpm3a8wYk_etbg-238" value="engine = new LayoutEngine" style="rounded=0;whiteSpace=wrap;html=1;" vertex="1" parent="1">
          <mxGeometry x="3937.5" y="3100" width="255" height="40" as="geometry" />
        </mxCell>
        <mxCell id="8NAubKkpm3a8wYk_etbg-241" value="监听layoutService更新布局事件&lt;br&gt;layoutService.onDidUpdateLayoutState" style="rounded=0;whiteSpace=wrap;html=1;" vertex="1" parent="1">
          <mxGeometry x="3895.01" y="3320" width="340" height="55" as="geometry" />
        </mxCell>
        <mxCell id="8NAubKkpm3a8wYk_etbg-242" value="update()" style="rounded=0;whiteSpace=wrap;html=1;" vertex="1" parent="1">
          <mxGeometry x="3941.25" y="2910" width="255" height="40" as="geometry" />
        </mxCell>
        <mxCell id="8NAubKkpm3a8wYk_etbg-244" style="edgeStyle=orthogonalEdgeStyle;rounded=0;orthogonalLoop=1;jettySize=auto;html=1;entryX=0;entryY=0.75;entryDx=0;entryDy=0;dashed=1;dashPattern=1 1;strokeWidth=2;" edge="1" parent="1" source="8NAubKkpm3a8wYk_etbg-241" target="8NAubKkpm3a8wYk_etbg-242">
          <mxGeometry relative="1" as="geometry">
            <Array as="points">
              <mxPoint x="3760" y="3348" />
              <mxPoint x="3760" y="2940" />
            </Array>
          </mxGeometry>
        </mxCell>
        <mxCell id="8NAubKkpm3a8wYk_etbg-245" value="事件触发后回调update函数" style="edgeLabel;html=1;align=center;verticalAlign=middle;resizable=0;points=[];" vertex="1" connectable="0" parent="8NAubKkpm3a8wYk_etbg-244">
          <mxGeometry x="-0.3873" y="4" relative="1" as="geometry">
            <mxPoint y="-1" as="offset" />
          </mxGeometry>
        </mxCell>
        <mxCell id="8NAubKkpm3a8wYk_etbg-246" value="" style="whiteSpace=wrap;html=1;" vertex="1" parent="1">
          <mxGeometry x="4880" y="2640" width="330" height="401.5" as="geometry" />
        </mxCell>
        <mxCell id="8NAubKkpm3a8wYk_etbg-247" value="LayoutEngine" style="text;html=1;strokeColor=none;fillColor=none;align=center;verticalAlign=middle;whiteSpace=wrap;rounded=0;fontSize=30;" vertex="1" parent="1">
          <mxGeometry x="4900" y="2655" width="297.5" height="40" as="geometry" />
        </mxCell>
        <mxCell id="8NAubKkpm3a8wYk_etbg-251" value="构造函数" style="rounded=0;whiteSpace=wrap;html=1;" vertex="1" parent="1">
          <mxGeometry x="4917.51" y="2984.5" width="255" height="40" as="geometry" />
        </mxCell>
        <mxCell id="8NAubKkpm3a8wYk_etbg-420" style="edgeStyle=orthogonalEdgeStyle;rounded=0;orthogonalLoop=1;jettySize=auto;html=1;" edge="1" parent="1" source="8NAubKkpm3a8wYk_etbg-252" target="8NAubKkpm3a8wYk_etbg-419">
          <mxGeometry relative="1" as="geometry" />
        </mxCell>
        <mxCell id="8NAubKkpm3a8wYk_etbg-252" value="updateDoc()" style="rounded=0;whiteSpace=wrap;html=1;" vertex="1" parent="1">
          <mxGeometry x="4921.25" y="2901.5" width="255" height="40" as="geometry" />
        </mxCell>
        <mxCell id="8NAubKkpm3a8wYk_etbg-253" style="edgeStyle=orthogonalEdgeStyle;rounded=0;orthogonalLoop=1;jettySize=auto;html=1;entryX=0;entryY=0.5;entryDx=0;entryDy=0;dashed=1;dashPattern=12 12;" edge="1" parent="1" source="8NAubKkpm3a8wYk_etbg-238" target="8NAubKkpm3a8wYk_etbg-251">
          <mxGeometry relative="1" as="geometry" />
        </mxCell>
        <mxCell id="8NAubKkpm3a8wYk_etbg-254" style="edgeStyle=orthogonalEdgeStyle;rounded=0;orthogonalLoop=1;jettySize=auto;html=1;entryX=0;entryY=0.5;entryDx=0;entryDy=0;dashed=1;dashPattern=1 2;strokeWidth=2;" edge="1" parent="1" source="8NAubKkpm3a8wYk_etbg-237" target="8NAubKkpm3a8wYk_etbg-252">
          <mxGeometry relative="1" as="geometry">
            <Array as="points">
              <mxPoint x="4640" y="3220" />
              <mxPoint x="4640" y="2922" />
            </Array>
          </mxGeometry>
        </mxCell>
        <mxCell id="8NAubKkpm3a8wYk_etbg-255" value="" style="whiteSpace=wrap;html=1;" vertex="1" parent="1">
          <mxGeometry x="2873" y="1445" width="330" height="310" as="geometry" />
        </mxCell>
        <mxCell id="8NAubKkpm3a8wYk_etbg-256" value="RenderService" style="text;html=1;strokeColor=none;fillColor=none;align=center;verticalAlign=middle;whiteSpace=wrap;rounded=0;fontSize=30;" vertex="1" parent="1">
          <mxGeometry x="2893" y="1460" width="297.5" height="40" as="geometry" />
        </mxCell>
        <mxCell id="8NAubKkpm3a8wYk_etbg-257" value="state: IRenderState" style="rounded=0;whiteSpace=wrap;html=1;" vertex="1" parent="1">
          <mxGeometry x="2910.5" y="1545" width="255" height="40" as="geometry" />
        </mxCell>
        <mxCell id="8NAubKkpm3a8wYk_etbg-258" value="getDoc()" style="rounded=0;whiteSpace=wrap;html=1;" vertex="1" parent="1">
          <mxGeometry x="2910.5" y="1635" width="255" height="40" as="geometry" />
        </mxCell>
        <mxCell id="8NAubKkpm3a8wYk_etbg-259" value="" style="whiteSpace=wrap;html=1;" vertex="1" parent="1">
          <mxGeometry x="3663" y="1453.5" width="330" height="401.5" as="geometry" />
        </mxCell>
        <mxCell id="8NAubKkpm3a8wYk_etbg-260" value="RenderState" style="text;html=1;strokeColor=none;fillColor=none;align=center;verticalAlign=middle;whiteSpace=wrap;rounded=0;fontSize=30;" vertex="1" parent="1">
          <mxGeometry x="3683" y="1468.5" width="297.5" height="40" as="geometry" />
        </mxCell>
        <mxCell id="8NAubKkpm3a8wYk_etbg-262" value="internalDoc: IRenderDoc" style="rounded=0;whiteSpace=wrap;html=1;" vertex="1" parent="1">
          <mxGeometry x="3707.38" y="1565" width="255" height="40" as="geometry" />
        </mxCell>
        <mxCell id="8NAubKkpm3a8wYk_etbg-263" style="edgeStyle=orthogonalEdgeStyle;rounded=0;orthogonalLoop=1;jettySize=auto;html=1;" edge="1" source="8NAubKkpm3a8wYk_etbg-264" target="8NAubKkpm3a8wYk_etbg-266" parent="1">
          <mxGeometry relative="1" as="geometry" />
        </mxCell>
        <mxCell id="8NAubKkpm3a8wYk_etbg-264" value="doc()" style="rounded=0;whiteSpace=wrap;html=1;" vertex="1" parent="1">
          <mxGeometry x="3713" y="1648" width="255" height="40" as="geometry" />
        </mxCell>
        <mxCell id="8NAubKkpm3a8wYk_etbg-265" style="edgeStyle=orthogonalEdgeStyle;rounded=0;orthogonalLoop=1;jettySize=auto;html=1;entryX=0;entryY=0.5;entryDx=0;entryDy=0;" edge="1" source="8NAubKkpm3a8wYk_etbg-258" target="8NAubKkpm3a8wYk_etbg-264" parent="1">
          <mxGeometry relative="1" as="geometry" />
        </mxCell>
        <mxCell id="8NAubKkpm3a8wYk_etbg-266" value="直接返回internalDoc" style="rounded=0;whiteSpace=wrap;html=1;" vertex="1" parent="1">
          <mxGeometry x="4133" y="1648" width="255" height="40" as="geometry" />
        </mxCell>
        <mxCell id="8NAubKkpm3a8wYk_etbg-267" style="edgeStyle=orthogonalEdgeStyle;rounded=0;orthogonalLoop=1;jettySize=auto;html=1;" edge="1" source="8NAubKkpm3a8wYk_etbg-268" target="8NAubKkpm3a8wYk_etbg-272" parent="1">
          <mxGeometry relative="1" as="geometry" />
        </mxCell>
        <mxCell id="8NAubKkpm3a8wYk_etbg-268" value="构造函数" style="rounded=0;whiteSpace=wrap;html=1;" vertex="1" parent="1">
          <mxGeometry x="3700.51" y="1798" width="255" height="40" as="geometry" />
        </mxCell>
        <mxCell id="8NAubKkpm3a8wYk_etbg-269" style="edgeStyle=orthogonalEdgeStyle;rounded=0;orthogonalLoop=1;jettySize=auto;html=1;" edge="1" source="8NAubKkpm3a8wYk_etbg-270" target="8NAubKkpm3a8wYk_etbg-273" parent="1">
          <mxGeometry relative="1" as="geometry" />
        </mxCell>
        <mxCell id="8NAubKkpm3a8wYk_etbg-351" style="edgeStyle=orthogonalEdgeStyle;rounded=0;orthogonalLoop=1;jettySize=auto;html=1;entryX=0;entryY=0.5;entryDx=0;entryDy=0;" edge="1" parent="1" source="8NAubKkpm3a8wYk_etbg-270" target="8NAubKkpm3a8wYk_etbg-350">
          <mxGeometry relative="1" as="geometry" />
        </mxCell>
        <mxCell id="8NAubKkpm3a8wYk_etbg-270" value="internalDoc = this.updateNode(null, modelRoot)" style="rounded=0;whiteSpace=wrap;html=1;fillColor=#99FF99;" vertex="1" parent="1">
          <mxGeometry x="3693.63" y="2005" width="268.75" height="40" as="geometry" />
        </mxCell>
        <mxCell id="8NAubKkpm3a8wYk_etbg-271" style="edgeStyle=orthogonalEdgeStyle;rounded=0;orthogonalLoop=1;jettySize=auto;html=1;" edge="1" source="8NAubKkpm3a8wYk_etbg-272" target="8NAubKkpm3a8wYk_etbg-270" parent="1">
          <mxGeometry relative="1" as="geometry" />
        </mxCell>
        <mxCell id="8NAubKkpm3a8wYk_etbg-272" value="modelRoot = modelService.getRoot()" style="rounded=0;whiteSpace=wrap;html=1;" vertex="1" parent="1">
          <mxGeometry x="3700.5" y="1905" width="255" height="40" as="geometry" />
        </mxCell>
        <mxCell id="8NAubKkpm3a8wYk_etbg-273" value="监听modelService更新事件&lt;br&gt;modelService.onDidUpdateModelState" style="rounded=0;whiteSpace=wrap;html=1;" vertex="1" parent="1">
          <mxGeometry x="3658.01" y="2125" width="340" height="55" as="geometry" />
        </mxCell>
        <mxCell id="8NAubKkpm3a8wYk_etbg-274" value="update()" style="rounded=0;whiteSpace=wrap;html=1;" vertex="1" parent="1">
          <mxGeometry x="3704.25" y="1715" width="255" height="40" as="geometry" />
        </mxCell>
        <mxCell id="8NAubKkpm3a8wYk_etbg-275" style="edgeStyle=orthogonalEdgeStyle;rounded=0;orthogonalLoop=1;jettySize=auto;html=1;entryX=0;entryY=0.75;entryDx=0;entryDy=0;dashed=1;dashPattern=1 1;strokeWidth=2;" edge="1" source="8NAubKkpm3a8wYk_etbg-273" target="8NAubKkpm3a8wYk_etbg-274" parent="1">
          <mxGeometry relative="1" as="geometry">
            <Array as="points">
              <mxPoint x="3523" y="2153" />
              <mxPoint x="3523" y="1745" />
            </Array>
          </mxGeometry>
        </mxCell>
        <mxCell id="8NAubKkpm3a8wYk_etbg-276" value="事件触发后回调update函数" style="edgeLabel;html=1;align=center;verticalAlign=middle;resizable=0;points=[];" vertex="1" connectable="0" parent="8NAubKkpm3a8wYk_etbg-275">
          <mxGeometry x="-0.3873" y="4" relative="1" as="geometry">
            <mxPoint y="-1" as="offset" />
          </mxGeometry>
        </mxCell>
        <mxCell id="8NAubKkpm3a8wYk_etbg-284" value="" style="whiteSpace=wrap;html=1;" vertex="1" parent="1">
          <mxGeometry x="2830" y="750" width="330" height="401.5" as="geometry" />
        </mxCell>
        <mxCell id="8NAubKkpm3a8wYk_etbg-285" value="ModelService" style="text;html=1;strokeColor=none;fillColor=none;align=center;verticalAlign=middle;whiteSpace=wrap;rounded=0;fontSize=30;" vertex="1" parent="1">
          <mxGeometry x="2850" y="765" width="297.5" height="40" as="geometry" />
        </mxCell>
        <mxCell id="8NAubKkpm3a8wYk_etbg-286" value="getRoot" style="rounded=0;whiteSpace=wrap;html=1;" vertex="1" parent="1">
          <mxGeometry x="2871.25" y="948" width="255" height="40" as="geometry" />
        </mxCell>
        <mxCell id="8NAubKkpm3a8wYk_etbg-287" value="state: IModelState" style="rounded=0;whiteSpace=wrap;html=1;" vertex="1" parent="1">
          <mxGeometry x="2871.25" y="865" width="255" height="40" as="geometry" />
        </mxCell>
        <mxCell id="8NAubKkpm3a8wYk_etbg-288" value="" style="whiteSpace=wrap;html=1;" vertex="1" parent="1">
          <mxGeometry x="3634.99" y="720" width="330" height="401.5" as="geometry" />
        </mxCell>
        <mxCell id="8NAubKkpm3a8wYk_etbg-289" value="ModelState" style="text;html=1;strokeColor=none;fillColor=none;align=center;verticalAlign=middle;whiteSpace=wrap;rounded=0;fontSize=30;" vertex="1" parent="1">
          <mxGeometry x="3654.99" y="735" width="297.5" height="40" as="geometry" />
        </mxCell>
        <mxCell id="8NAubKkpm3a8wYk_etbg-290" value="root: IModelRoot" style="rounded=0;whiteSpace=wrap;html=1;" vertex="1" parent="1">
          <mxGeometry x="3677.51" y="830" width="255" height="40" as="geometry" />
        </mxCell>
        <mxCell id="8NAubKkpm3a8wYk_etbg-291" value="applyChange()" style="rounded=0;whiteSpace=wrap;html=1;" vertex="1" parent="1">
          <mxGeometry x="3684.99" y="914.5" width="255" height="40" as="geometry" />
        </mxCell>
        <mxCell id="8NAubKkpm3a8wYk_etbg-293" value="构造函数" style="rounded=0;whiteSpace=wrap;html=1;" vertex="1" parent="1">
          <mxGeometry x="3672.5" y="1064.5" width="255" height="40" as="geometry" />
        </mxCell>
        <mxCell id="8NAubKkpm3a8wYk_etbg-304" style="edgeStyle=orthogonalEdgeStyle;rounded=0;orthogonalLoop=1;jettySize=auto;html=1;dashed=1;dashPattern=12 12;strokeWidth=2;" edge="1" parent="1" source="8NAubKkpm3a8wYk_etbg-272" target="8NAubKkpm3a8wYk_etbg-286">
          <mxGeometry relative="1" as="geometry">
            <Array as="points">
              <mxPoint x="3400" y="1925" />
              <mxPoint x="3400" y="2320" />
              <mxPoint x="2650" y="2320" />
              <mxPoint x="2650" y="968" />
            </Array>
          </mxGeometry>
        </mxCell>
        <mxCell id="8NAubKkpm3a8wYk_etbg-308" style="edgeStyle=orthogonalEdgeStyle;rounded=0;orthogonalLoop=1;jettySize=auto;html=1;" edge="1" parent="1" source="8NAubKkpm3a8wYk_etbg-306" target="8NAubKkpm3a8wYk_etbg-307">
          <mxGeometry relative="1" as="geometry" />
        </mxCell>
        <mxCell id="8NAubKkpm3a8wYk_etbg-306" value="构造函数" style="rounded=0;whiteSpace=wrap;html=1;" vertex="1" parent="1">
          <mxGeometry x="2871.25" y="1050" width="255" height="40" as="geometry" />
        </mxCell>
        <mxCell id="8NAubKkpm3a8wYk_etbg-309" style="edgeStyle=orthogonalEdgeStyle;rounded=0;orthogonalLoop=1;jettySize=auto;html=1;entryX=0;entryY=0.5;entryDx=0;entryDy=0;" edge="1" parent="1" source="8NAubKkpm3a8wYk_etbg-307" target="8NAubKkpm3a8wYk_etbg-293">
          <mxGeometry relative="1" as="geometry" />
        </mxCell>
        <mxCell id="8NAubKkpm3a8wYk_etbg-307" value="state = new ModelState(root, componentService)" style="rounded=0;whiteSpace=wrap;html=1;" vertex="1" parent="1">
          <mxGeometry x="2846.25" y="1240" width="305" height="40" as="geometry" />
        </mxCell>
        <mxCell id="8NAubKkpm3a8wYk_etbg-312" style="edgeStyle=orthogonalEdgeStyle;rounded=0;orthogonalLoop=1;jettySize=auto;html=1;entryX=0.5;entryY=0;entryDx=0;entryDy=0;" edge="1" parent="1" source="8NAubKkpm3a8wYk_etbg-310" target="8NAubKkpm3a8wYk_etbg-311">
          <mxGeometry relative="1" as="geometry" />
        </mxCell>
        <mxCell id="8NAubKkpm3a8wYk_etbg-310" value="构造函数" style="rounded=0;whiteSpace=wrap;html=1;" vertex="1" parent="1">
          <mxGeometry x="3147.5" y="2893" width="255" height="40" as="geometry" />
        </mxCell>
        <mxCell id="8NAubKkpm3a8wYk_etbg-313" style="edgeStyle=orthogonalEdgeStyle;rounded=0;orthogonalLoop=1;jettySize=auto;html=1;entryX=0;entryY=0.5;entryDx=0;entryDy=0;" edge="1" parent="1" source="8NAubKkpm3a8wYk_etbg-311" target="8NAubKkpm3a8wYk_etbg-236">
          <mxGeometry relative="1" as="geometry" />
        </mxCell>
        <mxCell id="8NAubKkpm3a8wYk_etbg-311" value="this.state = new LayoutState" style="rounded=0;whiteSpace=wrap;html=1;" vertex="1" parent="1">
          <mxGeometry x="3150" y="3074.5" width="255" height="40" as="geometry" />
        </mxCell>
        <mxCell id="8NAubKkpm3a8wYk_etbg-316" style="edgeStyle=orthogonalEdgeStyle;rounded=0;orthogonalLoop=1;jettySize=auto;html=1;" edge="1" parent="1" source="8NAubKkpm3a8wYk_etbg-314" target="8NAubKkpm3a8wYk_etbg-315">
          <mxGeometry relative="1" as="geometry" />
        </mxCell>
        <mxCell id="8NAubKkpm3a8wYk_etbg-314" value="构造函数" style="rounded=0;whiteSpace=wrap;html=1;" vertex="1" parent="1">
          <mxGeometry x="2910.5" y="1704" width="255" height="40" as="geometry" />
        </mxCell>
        <mxCell id="8NAubKkpm3a8wYk_etbg-317" style="edgeStyle=orthogonalEdgeStyle;rounded=0;orthogonalLoop=1;jettySize=auto;html=1;entryX=0;entryY=0.75;entryDx=0;entryDy=0;" edge="1" parent="1" source="8NAubKkpm3a8wYk_etbg-315" target="8NAubKkpm3a8wYk_etbg-268">
          <mxGeometry relative="1" as="geometry" />
        </mxCell>
        <mxCell id="8NAubKkpm3a8wYk_etbg-315" value="state = new RenderState(componentService, modelService)" style="rounded=0;whiteSpace=wrap;html=1;" vertex="1" parent="1">
          <mxGeometry x="2865" y="1805" width="346" height="47" as="geometry" />
        </mxCell>
        <mxCell id="8NAubKkpm3a8wYk_etbg-305" style="edgeStyle=orthogonalEdgeStyle;rounded=0;orthogonalLoop=1;jettySize=auto;html=1;entryX=0;entryY=0.5;entryDx=0;entryDy=0;" edge="1" parent="1" source="8NAubKkpm3a8wYk_etbg-286" target="8NAubKkpm3a8wYk_etbg-290">
          <mxGeometry relative="1" as="geometry" />
        </mxCell>
        <mxCell id="8NAubKkpm3a8wYk_etbg-318" style="edgeStyle=orthogonalEdgeStyle;rounded=0;orthogonalLoop=1;jettySize=auto;html=1;strokeWidth=4;" edge="1" parent="1" source="8NAubKkpm3a8wYk_etbg-11" target="8NAubKkpm3a8wYk_etbg-166">
          <mxGeometry relative="1" as="geometry">
            <Array as="points">
              <mxPoint x="710" y="680" />
              <mxPoint x="710" y="4306" />
            </Array>
          </mxGeometry>
        </mxCell>
        <mxCell id="8NAubKkpm3a8wYk_etbg-329" value="" style="edgeStyle=orthogonalEdgeStyle;rounded=0;orthogonalLoop=1;jettySize=auto;html=1;" edge="1" parent="1" source="8NAubKkpm3a8wYk_etbg-319" target="8NAubKkpm3a8wYk_etbg-322">
          <mxGeometry relative="1" as="geometry" />
        </mxCell>
        <mxCell id="8NAubKkpm3a8wYk_etbg-319" value="modelService = new ModelService(root, this.componentService)" style="rounded=0;whiteSpace=wrap;html=1;" vertex="1" parent="1">
          <mxGeometry x="920" y="1119" width="360" height="60" as="geometry" />
        </mxCell>
        <mxCell id="8NAubKkpm3a8wYk_etbg-339" style="edgeStyle=orthogonalEdgeStyle;rounded=0;orthogonalLoop=1;jettySize=auto;html=1;entryX=0.5;entryY=0;entryDx=0;entryDy=0;" edge="1" parent="1" source="8NAubKkpm3a8wYk_etbg-322" target="8NAubKkpm3a8wYk_etbg-325">
          <mxGeometry relative="1" as="geometry" />
        </mxCell>
        <mxCell id="8NAubKkpm3a8wYk_etbg-322" value="renderService = new RenderService(this.componentService, this.modelService)" style="rounded=0;whiteSpace=wrap;html=1;" vertex="1" parent="1">
          <mxGeometry x="880" y="1255" width="440" height="70" as="geometry" />
        </mxCell>
        <mxCell id="8NAubKkpm3a8wYk_etbg-333" value="" style="edgeStyle=orthogonalEdgeStyle;rounded=0;orthogonalLoop=1;jettySize=auto;html=1;" edge="1" parent="1" source="8NAubKkpm3a8wYk_etbg-325" target="8NAubKkpm3a8wYk_etbg-326">
          <mxGeometry relative="1" as="geometry" />
        </mxCell>
        <mxCell id="8NAubKkpm3a8wYk_etbg-325" value="cursorService = new CursorService" style="rounded=0;whiteSpace=wrap;html=1;" vertex="1" parent="1">
          <mxGeometry x="880" y="1449.5" width="440" height="70" as="geometry" />
        </mxCell>
        <mxCell id="8NAubKkpm3a8wYk_etbg-334" value="" style="edgeStyle=orthogonalEdgeStyle;rounded=0;orthogonalLoop=1;jettySize=auto;html=1;" edge="1" parent="1" source="8NAubKkpm3a8wYk_etbg-326" target="8NAubKkpm3a8wYk_etbg-327">
          <mxGeometry relative="1" as="geometry" />
        </mxCell>
        <mxCell id="8NAubKkpm3a8wYk_etbg-326" value="layoutService = new LayoutService" style="rounded=0;whiteSpace=wrap;html=1;" vertex="1" parent="1">
          <mxGeometry x="880" y="1584" width="440" height="70" as="geometry" />
        </mxCell>
        <mxCell id="8NAubKkpm3a8wYk_etbg-327" value="viewService = new ViewService" style="rounded=0;whiteSpace=wrap;html=1;" vertex="1" parent="1">
          <mxGeometry x="880" y="1735" width="440" height="70" as="geometry" />
        </mxCell>
        <mxCell id="8NAubKkpm3a8wYk_etbg-335" style="edgeStyle=orthogonalEdgeStyle;rounded=0;orthogonalLoop=1;jettySize=auto;html=1;entryX=0;entryY=0.5;entryDx=0;entryDy=0;dashed=1;dashPattern=12 12;strokeWidth=4;" edge="1" parent="1" source="8NAubKkpm3a8wYk_etbg-207" target="8NAubKkpm3a8wYk_etbg-225">
          <mxGeometry relative="1" as="geometry">
            <Array as="points">
              <mxPoint x="4410" y="3810" />
              <mxPoint x="3050" y="3810" />
              <mxPoint x="3050" y="2850" />
            </Array>
          </mxGeometry>
        </mxCell>
        <mxCell id="8NAubKkpm3a8wYk_etbg-336" style="edgeStyle=orthogonalEdgeStyle;rounded=0;orthogonalLoop=1;jettySize=auto;html=1;entryX=0;entryY=0.75;entryDx=0;entryDy=0;dashed=1;dashPattern=12 12;strokeWidth=4;" edge="1" parent="1" source="8NAubKkpm3a8wYk_etbg-319" target="8NAubKkpm3a8wYk_etbg-306">
          <mxGeometry relative="1" as="geometry" />
        </mxCell>
        <mxCell id="8NAubKkpm3a8wYk_etbg-337" style="edgeStyle=orthogonalEdgeStyle;rounded=0;orthogonalLoop=1;jettySize=auto;html=1;entryX=0;entryY=0.5;entryDx=0;entryDy=0;strokeWidth=4;dashed=1;dashPattern=12 12;" edge="1" parent="1" source="8NAubKkpm3a8wYk_etbg-322" target="8NAubKkpm3a8wYk_etbg-314">
          <mxGeometry relative="1" as="geometry" />
        </mxCell>
        <mxCell id="8NAubKkpm3a8wYk_etbg-338" style="edgeStyle=orthogonalEdgeStyle;rounded=0;orthogonalLoop=1;jettySize=auto;html=1;strokeWidth=4;dashed=1;dashPattern=12 12;" edge="1" parent="1" source="8NAubKkpm3a8wYk_etbg-208" target="8NAubKkpm3a8wYk_etbg-258">
          <mxGeometry relative="1" as="geometry">
            <Array as="points">
              <mxPoint x="4560" y="4580" />
              <mxPoint x="4560" y="3580" />
              <mxPoint x="2780" y="3580" />
              <mxPoint x="2780" y="1655" />
            </Array>
          </mxGeometry>
        </mxCell>
        <mxCell id="8NAubKkpm3a8wYk_etbg-345" style="edgeStyle=orthogonalEdgeStyle;rounded=0;orthogonalLoop=1;jettySize=auto;html=1;entryX=0;entryY=0.5;entryDx=0;entryDy=0;dashed=1;dashPattern=12 12;strokeWidth=4;" edge="1" parent="1" source="8NAubKkpm3a8wYk_etbg-326" target="8NAubKkpm3a8wYk_etbg-310">
          <mxGeometry relative="1" as="geometry">
            <Array as="points">
              <mxPoint x="1930" y="1619" />
              <mxPoint x="1930" y="2913" />
            </Array>
          </mxGeometry>
        </mxCell>
        <mxCell id="8NAubKkpm3a8wYk_etbg-346" style="edgeStyle=orthogonalEdgeStyle;rounded=0;orthogonalLoop=1;jettySize=auto;html=1;entryX=0;entryY=0.5;entryDx=0;entryDy=0;strokeWidth=4;dashed=1;dashPattern=12 12;" edge="1" parent="1" source="8NAubKkpm3a8wYk_etbg-327" target="8NAubKkpm3a8wYk_etbg-167">
          <mxGeometry relative="1" as="geometry">
            <Array as="points">
              <mxPoint x="1640" y="1770" />
              <mxPoint x="1640" y="4376" />
            </Array>
          </mxGeometry>
        </mxCell>
        <mxCell id="8NAubKkpm3a8wYk_etbg-347" style="edgeStyle=orthogonalEdgeStyle;rounded=0;orthogonalLoop=1;jettySize=auto;html=1;entryX=0;entryY=0.5;entryDx=0;entryDy=0;dashed=1;dashPattern=12 12;" edge="1" parent="1" source="8NAubKkpm3a8wYk_etbg-171" target="8NAubKkpm3a8wYk_etbg-187">
          <mxGeometry relative="1" as="geometry">
            <Array as="points">
              <mxPoint x="3240" y="5089" />
              <mxPoint x="3240" y="5625" />
            </Array>
          </mxGeometry>
        </mxCell>
        <mxCell id="8NAubKkpm3a8wYk_etbg-348" style="edgeStyle=orthogonalEdgeStyle;rounded=0;orthogonalLoop=1;jettySize=auto;html=1;entryX=0;entryY=0.5;entryDx=0;entryDy=0;dashed=1;dashPattern=12 12;" edge="1" parent="1" source="8NAubKkpm3a8wYk_etbg-173" target="8NAubKkpm3a8wYk_etbg-191">
          <mxGeometry relative="1" as="geometry">
            <Array as="points">
              <mxPoint x="3200" y="5625" />
              <mxPoint x="3200" y="5180" />
              <mxPoint x="3540" y="5180" />
              <mxPoint x="3540" y="5079" />
            </Array>
          </mxGeometry>
        </mxCell>
        <mxCell id="8NAubKkpm3a8wYk_etbg-350" value="从根节点递归当前模型树，为每一个模型节点构建渲染节点组成渲染树&lt;br&gt;component.buildRenderNode" style="rounded=0;whiteSpace=wrap;html=1;" vertex="1" parent="1">
          <mxGeometry x="4135" y="1990" width="277" height="70" as="geometry" />
        </mxCell>
        <mxCell id="8NAubKkpm3a8wYk_etbg-352" value="" style="whiteSpace=wrap;html=1;" vertex="1" parent="1">
          <mxGeometry x="5932.5" y="2188" width="330" height="459" as="geometry" />
        </mxCell>
        <mxCell id="8NAubKkpm3a8wYk_etbg-353" value="IComponent" style="text;html=1;strokeColor=none;fillColor=none;align=center;verticalAlign=middle;whiteSpace=wrap;rounded=0;fontSize=30;" vertex="1" parent="1">
          <mxGeometry x="5952.5" y="2203" width="297.5" height="40" as="geometry" />
        </mxCell>
        <mxCell id="8NAubKkpm3a8wYk_etbg-354" value="buildModelNode" style="rounded=0;whiteSpace=wrap;html=1;" vertex="1" parent="1">
          <mxGeometry x="5973.75" y="2338" width="255" height="40" as="geometry" />
        </mxCell>
        <mxCell id="8NAubKkpm3a8wYk_etbg-355" value="id: string" style="rounded=0;whiteSpace=wrap;html=1;" vertex="1" parent="1">
          <mxGeometry x="5967.5" y="2283" width="260" height="40" as="geometry" />
        </mxCell>
        <mxCell id="8NAubKkpm3a8wYk_etbg-356" value="buildRenderNode" style="rounded=0;whiteSpace=wrap;html=1;" vertex="1" parent="1">
          <mxGeometry x="5967.5" y="2427" width="255" height="40" as="geometry" />
        </mxCell>
        <mxCell id="8NAubKkpm3a8wYk_etbg-357" value="buildViewNode" style="rounded=0;whiteSpace=wrap;html=1;" vertex="1" parent="1">
          <mxGeometry x="5970" y="2497" width="255" height="40" as="geometry" />
        </mxCell>
        <mxCell id="8NAubKkpm3a8wYk_etbg-358" value="toDOM():&amp;nbsp;HTMLElement" style="rounded=0;whiteSpace=wrap;html=1;" vertex="1" parent="1">
          <mxGeometry x="5970" y="2567" width="255" height="40" as="geometry" />
        </mxCell>
        <mxCell id="8NAubKkpm3a8wYk_etbg-359" value="" style="whiteSpace=wrap;html=1;" vertex="1" parent="1">
          <mxGeometry x="5930" y="2847" width="330" height="459" as="geometry" />
        </mxCell>
        <mxCell id="8NAubKkpm3a8wYk_etbg-360" value="ParagraphComponent" style="text;html=1;strokeColor=none;fillColor=none;align=center;verticalAlign=middle;whiteSpace=wrap;rounded=0;fontSize=30;" vertex="1" parent="1">
          <mxGeometry x="5950" y="2862" width="297.5" height="40" as="geometry" />
        </mxCell>
        <mxCell id="8NAubKkpm3a8wYk_etbg-369" style="edgeStyle=orthogonalEdgeStyle;rounded=0;orthogonalLoop=1;jettySize=auto;html=1;" edge="1" parent="1" source="8NAubKkpm3a8wYk_etbg-361" target="8NAubKkpm3a8wYk_etbg-368">
          <mxGeometry relative="1" as="geometry" />
        </mxCell>
        <mxCell id="8NAubKkpm3a8wYk_etbg-361" value="buildModelNode" style="rounded=0;whiteSpace=wrap;html=1;" vertex="1" parent="1">
          <mxGeometry x="5967.5" y="3017" width="255" height="40" as="geometry" />
        </mxCell>
        <mxCell id="8NAubKkpm3a8wYk_etbg-362" value="id: string" style="rounded=0;whiteSpace=wrap;html=1;" vertex="1" parent="1">
          <mxGeometry x="5965" y="2942" width="260" height="40" as="geometry" />
        </mxCell>
        <mxCell id="8NAubKkpm3a8wYk_etbg-372" style="edgeStyle=orthogonalEdgeStyle;rounded=0;orthogonalLoop=1;jettySize=auto;html=1;entryX=0;entryY=0.5;entryDx=0;entryDy=0;" edge="1" parent="1" source="8NAubKkpm3a8wYk_etbg-363" target="8NAubKkpm3a8wYk_etbg-371">
          <mxGeometry relative="1" as="geometry">
            <Array as="points">
              <mxPoint x="6400" y="3106" />
              <mxPoint x="6400" y="3277" />
            </Array>
          </mxGeometry>
        </mxCell>
        <mxCell id="8NAubKkpm3a8wYk_etbg-363" value="buildRenderNode" style="rounded=0;whiteSpace=wrap;html=1;" vertex="1" parent="1">
          <mxGeometry x="5965" y="3086" width="255" height="40" as="geometry" />
        </mxCell>
        <mxCell id="8NAubKkpm3a8wYk_etbg-469" style="edgeStyle=orthogonalEdgeStyle;rounded=0;orthogonalLoop=1;jettySize=auto;html=1;entryX=0.5;entryY=0;entryDx=0;entryDy=0;" edge="1" parent="1" source="8NAubKkpm3a8wYk_etbg-364" target="8NAubKkpm3a8wYk_etbg-468">
          <mxGeometry relative="1" as="geometry">
            <Array as="points">
              <mxPoint x="6330" y="3176" />
              <mxPoint x="6330" y="3550" />
              <mxPoint x="6165" y="3550" />
            </Array>
          </mxGeometry>
        </mxCell>
        <mxCell id="8NAubKkpm3a8wYk_etbg-364" value="buildViewNode" style="rounded=0;whiteSpace=wrap;html=1;" vertex="1" parent="1">
          <mxGeometry x="5967.5" y="3156" width="255" height="40" as="geometry" />
        </mxCell>
        <mxCell id="8NAubKkpm3a8wYk_etbg-365" value="toDOM():&amp;nbsp;HTMLElement" style="rounded=0;whiteSpace=wrap;html=1;" vertex="1" parent="1">
          <mxGeometry x="5967.5" y="3226" width="255" height="40" as="geometry" />
        </mxCell>
        <mxCell id="8NAubKkpm3a8wYk_etbg-366" style="edgeStyle=orthogonalEdgeStyle;rounded=0;orthogonalLoop=1;jettySize=auto;html=1;entryX=0.5;entryY=1;entryDx=0;entryDy=0;endArrow=block;endFill=0;endSize=24;dashed=1;dashPattern=12 12;" edge="1" source="8NAubKkpm3a8wYk_etbg-359" target="8NAubKkpm3a8wYk_etbg-352" parent="1">
          <mxGeometry relative="1" as="geometry" />
        </mxCell>
        <mxCell id="8NAubKkpm3a8wYk_etbg-367" style="edgeStyle=orthogonalEdgeStyle;rounded=0;orthogonalLoop=1;jettySize=auto;html=1;entryX=0;entryY=0.5;entryDx=0;entryDy=0;strokeWidth=4;" edge="1" parent="1" source="8NAubKkpm3a8wYk_etbg-350" target="8NAubKkpm3a8wYk_etbg-356">
          <mxGeometry relative="1" as="geometry" />
        </mxCell>
        <mxCell id="8NAubKkpm3a8wYk_etbg-368" value="new ModelParagraph()" style="rounded=0;whiteSpace=wrap;html=1;" vertex="1" parent="1">
          <mxGeometry x="6510" y="3170" width="255" height="40" as="geometry" />
        </mxCell>
        <mxCell id="8NAubKkpm3a8wYk_etbg-370" style="edgeStyle=orthogonalEdgeStyle;rounded=0;orthogonalLoop=1;jettySize=auto;html=1;entryX=0;entryY=0.5;entryDx=0;entryDy=0;strokeWidth=4;" edge="1" parent="1" source="8NAubKkpm3a8wYk_etbg-64" target="8NAubKkpm3a8wYk_etbg-354">
          <mxGeometry relative="1" as="geometry">
            <Array as="points">
              <mxPoint x="-967" y="1380" />
              <mxPoint x="5530" y="1380" />
              <mxPoint x="5530" y="2358" />
            </Array>
          </mxGeometry>
        </mxCell>
        <mxCell id="8NAubKkpm3a8wYk_etbg-371" value="new RenderParagraph()" style="rounded=0;whiteSpace=wrap;html=1;" vertex="1" parent="1">
          <mxGeometry x="6510" y="3257" width="255" height="40" as="geometry" />
        </mxCell>
        <mxCell id="8NAubKkpm3a8wYk_etbg-373" style="edgeStyle=orthogonalEdgeStyle;rounded=0;orthogonalLoop=1;jettySize=auto;html=1;entryX=0;entryY=0.75;entryDx=0;entryDy=0;dashed=1;dashPattern=12 12;strokeWidth=2;" edge="1" parent="1" source="8NAubKkpm3a8wYk_etbg-368" target="8NAubKkpm3a8wYk_etbg-157">
          <mxGeometry relative="1" as="geometry">
            <Array as="points">
              <mxPoint x="6990" y="3190" />
              <mxPoint x="6990" y="5410" />
            </Array>
          </mxGeometry>
        </mxCell>
        <mxCell id="8NAubKkpm3a8wYk_etbg-375" value="" style="whiteSpace=wrap;html=1;" vertex="1" parent="1">
          <mxGeometry x="8090" y="3687" width="330" height="440" as="geometry" />
        </mxCell>
        <mxCell id="8NAubKkpm3a8wYk_etbg-385" style="edgeStyle=orthogonalEdgeStyle;rounded=0;orthogonalLoop=1;jettySize=auto;html=1;entryX=0.5;entryY=1;entryDx=0;entryDy=0;endArrow=block;endFill=0;endSize=24;dashed=1;dashPattern=12 12;" edge="1" parent="1" source="8NAubKkpm3a8wYk_etbg-376" target="8NAubKkpm3a8wYk_etbg-27">
          <mxGeometry relative="1" as="geometry" />
        </mxCell>
        <mxCell id="8NAubKkpm3a8wYk_etbg-386" value="实现接口" style="edgeLabel;html=1;align=center;verticalAlign=middle;resizable=0;points=[];" vertex="1" connectable="0" parent="8NAubKkpm3a8wYk_etbg-385">
          <mxGeometry x="-0.2561" y="-7" relative="1" as="geometry">
            <mxPoint as="offset" />
          </mxGeometry>
        </mxCell>
        <mxCell id="8NAubKkpm3a8wYk_etbg-376" value="Node" style="text;html=1;strokeColor=none;fillColor=none;align=center;verticalAlign=middle;whiteSpace=wrap;rounded=0;fontSize=30;" vertex="1" parent="1">
          <mxGeometry x="8162.5" y="3697" width="165" height="40" as="geometry" />
        </mxCell>
        <mxCell id="8NAubKkpm3a8wYk_etbg-377" value="leaf(): boolean" style="rounded=0;whiteSpace=wrap;html=1;" vertex="1" parent="1">
          <mxGeometry x="8110" y="3937" width="290" height="40" as="geometry" />
        </mxCell>
        <mxCell id="8NAubKkpm3a8wYk_etbg-378" value="parent: TNode" style="rounded=0;whiteSpace=wrap;html=1;" vertex="1" parent="1">
          <mxGeometry x="8110" y="3830" width="290" height="40" as="geometry" />
        </mxCell>
        <mxCell id="8NAubKkpm3a8wYk_etbg-379" value="internalChildren = new NodeList" style="rounded=0;whiteSpace=wrap;html=1;" vertex="1" parent="1">
          <mxGeometry x="8110" y="3770" width="290" height="40" as="geometry" />
        </mxCell>
        <mxCell id="8NAubKkpm3a8wYk_etbg-380" value="contentLength(): number" style="rounded=0;whiteSpace=wrap;html=1;" vertex="1" parent="1">
          <mxGeometry x="8110" y="3992" width="290" height="40" as="geometry" />
        </mxCell>
        <mxCell id="8NAubKkpm3a8wYk_etbg-381" value="size(): number" style="rounded=0;whiteSpace=wrap;html=1;" vertex="1" parent="1">
          <mxGeometry x="8110" y="4052" width="290" height="40" as="geometry" />
        </mxCell>
        <mxCell id="8NAubKkpm3a8wYk_etbg-384" value="root(): boolean" style="rounded=0;whiteSpace=wrap;html=1;" vertex="1" parent="1">
          <mxGeometry x="8110" y="3885" width="290" height="40" as="geometry" />
        </mxCell>
        <mxCell id="8NAubKkpm3a8wYk_etbg-387" value="" style="whiteSpace=wrap;html=1;" vertex="1" parent="1">
          <mxGeometry x="8125" y="5896" width="380" height="669" as="geometry" />
        </mxCell>
        <mxCell id="8NAubKkpm3a8wYk_etbg-406" style="edgeStyle=orthogonalEdgeStyle;rounded=0;orthogonalLoop=1;jettySize=auto;html=1;endSize=24;endArrow=block;endFill=0;exitX=0.466;exitY=-0.003;exitDx=0;exitDy=0;exitPerimeter=0;" edge="1" parent="1" source="8NAubKkpm3a8wYk_etbg-387" target="8NAubKkpm3a8wYk_etbg-399">
          <mxGeometry relative="1" as="geometry">
            <Array as="points">
              <mxPoint x="8305" y="5894" />
            </Array>
          </mxGeometry>
        </mxCell>
        <mxCell id="8NAubKkpm3a8wYk_etbg-388" value="RenderParagraph" style="text;html=1;strokeColor=none;fillColor=none;align=center;verticalAlign=middle;whiteSpace=wrap;rounded=0;fontSize=30;" vertex="1" parent="1">
          <mxGeometry x="8185" y="5915" width="270" height="40" as="geometry" />
        </mxCell>
        <mxCell id="8NAubKkpm3a8wYk_etbg-389" value="&lt;div&gt;&amp;nbsp; &amp;nbsp; get partId() {&lt;/div&gt;&lt;div style=&quot;&quot;&gt;&amp;nbsp; &amp;nbsp; &amp;nbsp; &amp;nbsp; return &#39;paragraph&#39;;&lt;/div&gt;&lt;div&gt;&amp;nbsp; &amp;nbsp; }&lt;/div&gt;&lt;div&gt;&lt;br&gt;&lt;/div&gt;&lt;div&gt;&amp;nbsp; &amp;nbsp; get pseudo() {&lt;/div&gt;&lt;div&gt;&amp;nbsp; &amp;nbsp; &amp;nbsp; &amp;nbsp; return false;&lt;/div&gt;&lt;div&gt;&amp;nbsp; &amp;nbsp; }&lt;/div&gt;&lt;div&gt;&lt;br&gt;&lt;/div&gt;&lt;div&gt;&amp;nbsp; &amp;nbsp; get paddingTop() {&lt;/div&gt;&lt;div&gt;&amp;nbsp; &amp;nbsp; &amp;nbsp; &amp;nbsp; return 0;&lt;/div&gt;&lt;div&gt;&amp;nbsp; &amp;nbsp; }&lt;/div&gt;&lt;div&gt;&lt;br&gt;&lt;/div&gt;&lt;div&gt;&amp;nbsp; &amp;nbsp; get paddingBottom() {&lt;/div&gt;&lt;div&gt;&amp;nbsp; &amp;nbsp; &amp;nbsp; &amp;nbsp; return 12;&lt;/div&gt;&lt;div&gt;&amp;nbsp; &amp;nbsp; }&lt;/div&gt;&lt;div&gt;&lt;br&gt;&lt;/div&gt;&lt;div&gt;&amp;nbsp; &amp;nbsp; get paddingLeft() {&lt;/div&gt;&lt;div&gt;&amp;nbsp; &amp;nbsp; &amp;nbsp; &amp;nbsp; return 0;&lt;/div&gt;&lt;div&gt;&amp;nbsp; &amp;nbsp; }&lt;/div&gt;&lt;div&gt;&lt;br&gt;&lt;/div&gt;&lt;div&gt;&amp;nbsp; &amp;nbsp; get paddingRight() {&lt;/div&gt;&lt;div&gt;&amp;nbsp; &amp;nbsp; &amp;nbsp; &amp;nbsp; return 0;&lt;/div&gt;&lt;div&gt;&amp;nbsp; &amp;nbsp; }&lt;/div&gt;&lt;div&gt;&lt;br&gt;&lt;/div&gt;&lt;div&gt;&amp;nbsp; &amp;nbsp; get style() {&lt;/div&gt;&lt;div&gt;&amp;nbsp; &amp;nbsp; &amp;nbsp; &amp;nbsp; return {};&lt;/div&gt;&lt;div&gt;&amp;nbsp; &amp;nbsp; }&lt;/div&gt;" style="rounded=0;whiteSpace=wrap;html=1;align=left;" vertex="1" parent="1">
          <mxGeometry x="8225" y="6060.5" width="200" height="399" as="geometry" />
        </mxCell>
        <mxCell id="8NAubKkpm3a8wYk_etbg-415" style="edgeStyle=orthogonalEdgeStyle;rounded=0;orthogonalLoop=1;jettySize=auto;html=1;endArrow=block;endFill=0;endSize=24;" edge="1" parent="1" source="8NAubKkpm3a8wYk_etbg-399" target="8NAubKkpm3a8wYk_etbg-407">
          <mxGeometry relative="1" as="geometry" />
        </mxCell>
        <mxCell id="8NAubKkpm3a8wYk_etbg-399" value="" style="whiteSpace=wrap;html=1;" vertex="1" parent="1">
          <mxGeometry x="8060" y="5281" width="490" height="395" as="geometry" />
        </mxCell>
        <mxCell id="8NAubKkpm3a8wYk_etbg-400" value="RenderBlock" style="text;html=1;strokeColor=none;fillColor=none;align=center;verticalAlign=middle;whiteSpace=wrap;rounded=0;fontSize=30;" vertex="1" parent="1">
          <mxGeometry x="8222.5" y="5291" width="165" height="40" as="geometry" />
        </mxCell>
        <mxCell id="8NAubKkpm3a8wYk_etbg-401" value="paddingLeft(): number" style="rounded=0;whiteSpace=wrap;html=1;" vertex="1" parent="1">
          <mxGeometry x="8170" y="5501" width="290" height="40" as="geometry" />
        </mxCell>
        <mxCell id="8NAubKkpm3a8wYk_etbg-402" value="&amp;nbsp;paddingTop(): number" style="rounded=0;whiteSpace=wrap;html=1;" vertex="1" parent="1">
          <mxGeometry x="8170" y="5371" width="290" height="40" as="geometry" />
        </mxCell>
        <mxCell id="8NAubKkpm3a8wYk_etbg-403" value="paddingBottom(): number" style="rounded=0;whiteSpace=wrap;html=1;" vertex="1" parent="1">
          <mxGeometry x="8170" y="5431" width="290" height="40" as="geometry" />
        </mxCell>
        <mxCell id="8NAubKkpm3a8wYk_etbg-404" value="paddingRight(): number" style="rounded=0;whiteSpace=wrap;html=1;" vertex="1" parent="1">
          <mxGeometry x="8176.25" y="5575" width="277.5" height="40" as="geometry" />
        </mxCell>
        <mxCell id="8NAubKkpm3a8wYk_etbg-416" style="edgeStyle=orthogonalEdgeStyle;rounded=0;orthogonalLoop=1;jettySize=auto;html=1;entryX=0.809;entryY=0.999;entryDx=0;entryDy=0;entryPerimeter=0;endArrow=block;endFill=0;endSize=24;exitX=0.441;exitY=-0.001;exitDx=0;exitDy=0;exitPerimeter=0;" edge="1" parent="1" source="8NAubKkpm3a8wYk_etbg-407" target="8NAubKkpm3a8wYk_etbg-375">
          <mxGeometry relative="1" as="geometry" />
        </mxCell>
        <mxCell id="8NAubKkpm3a8wYk_etbg-407" value="" style="whiteSpace=wrap;html=1;" vertex="1" parent="1">
          <mxGeometry x="8140" y="4356" width="490" height="504" as="geometry" />
        </mxCell>
        <mxCell id="8NAubKkpm3a8wYk_etbg-408" value="RenderNode" style="text;html=1;strokeColor=none;fillColor=none;align=center;verticalAlign=middle;whiteSpace=wrap;rounded=0;fontSize=30;" vertex="1" parent="1">
          <mxGeometry x="8302.5" y="4366" width="165" height="40" as="geometry" />
        </mxCell>
        <mxCell id="8NAubKkpm3a8wYk_etbg-409" value="&amp;nbsp;style(): TStyle" style="rounded=0;whiteSpace=wrap;html=1;" vertex="1" parent="1">
          <mxGeometry x="8250" y="4576" width="290" height="40" as="geometry" />
        </mxCell>
        <mxCell id="8NAubKkpm3a8wYk_etbg-410" value="type(): IRenderNodeType" style="rounded=0;whiteSpace=wrap;html=1;" vertex="1" parent="1">
          <mxGeometry x="8250" y="4446" width="290" height="40" as="geometry" />
        </mxCell>
        <mxCell id="8NAubKkpm3a8wYk_etbg-411" value="partId(): string" style="rounded=0;whiteSpace=wrap;html=1;" vertex="1" parent="1">
          <mxGeometry x="8250" y="4506" width="290" height="40" as="geometry" />
        </mxCell>
        <mxCell id="8NAubKkpm3a8wYk_etbg-412" value="internalSize?: number" style="rounded=0;whiteSpace=wrap;html=1;" vertex="1" parent="1">
          <mxGeometry x="8317.5" y="4640" width="165" height="40" as="geometry" />
        </mxCell>
        <mxCell id="8NAubKkpm3a8wYk_etbg-413" value="internalChildrenModelSize?: number" style="rounded=0;whiteSpace=wrap;html=1;" vertex="1" parent="1">
          <mxGeometry x="8277.5" y="4700" width="215" height="40" as="geometry" />
        </mxCell>
        <mxCell id="8NAubKkpm3a8wYk_etbg-414" value="internalNeedLayout = true" style="rounded=0;whiteSpace=wrap;html=1;" vertex="1" parent="1">
          <mxGeometry x="8277.5" y="4777" width="215" height="40" as="geometry" />
        </mxCell>
        <mxCell id="8NAubKkpm3a8wYk_etbg-417" value="构造函数" style="rounded=0;whiteSpace=wrap;html=1;" vertex="1" parent="1">
          <mxGeometry x="8177.5" y="6490" width="277.5" height="40" as="geometry" />
        </mxCell>
        <mxCell id="8NAubKkpm3a8wYk_etbg-418" style="edgeStyle=orthogonalEdgeStyle;rounded=0;orthogonalLoop=1;jettySize=auto;html=1;entryX=0;entryY=0.5;entryDx=0;entryDy=0;dashed=1;dashPattern=12 12;strokeWidth=4;" edge="1" parent="1" source="8NAubKkpm3a8wYk_etbg-371" target="8NAubKkpm3a8wYk_etbg-417">
          <mxGeometry relative="1" as="geometry">
            <Array as="points">
              <mxPoint x="6920" y="3277" />
              <mxPoint x="6920" y="6510" />
            </Array>
          </mxGeometry>
        </mxCell>
        <mxCell id="8NAubKkpm3a8wYk_etbg-419" value="这里将根据元素的内容和大小重新调整布局，构建并调整布局树的结构，包含分页逻辑。主要实现的方式是递归渲染树，重新计算渲染节点的大小，并使用渲染节点来构建各种布局节点也就是LayoutNode，&lt;br&gt;构建方法的形式是buildXXX比如buildDoc，buildBlock，buildText等等，调整树结构的方法形式是reflowXXX比如reflowPages，reflowLines等等" style="rounded=0;whiteSpace=wrap;html=1;fontSize=20;fillColor=#99FF99;" vertex="1" parent="1">
          <mxGeometry x="5340" y="3205.5" width="370" height="284" as="geometry" />
        </mxCell>
        <mxCell id="8NAubKkpm3a8wYk_etbg-476" style="edgeStyle=orthogonalEdgeStyle;rounded=0;orthogonalLoop=1;jettySize=auto;html=1;entryX=0.75;entryY=1;entryDx=0;entryDy=0;endArrow=block;endFill=0;endSize=24;" edge="1" parent="1" source="8NAubKkpm3a8wYk_etbg-423" target="8NAubKkpm3a8wYk_etbg-27">
          <mxGeometry relative="1" as="geometry">
            <Array as="points">
              <mxPoint x="9310" y="3580" />
              <mxPoint x="8328" y="3580" />
            </Array>
          </mxGeometry>
        </mxCell>
        <mxCell id="8NAubKkpm3a8wYk_etbg-423" value="" style="whiteSpace=wrap;html=1;" vertex="1" parent="1">
          <mxGeometry x="9080" y="3592.5" width="460" height="669" as="geometry" />
        </mxCell>
        <mxCell id="8NAubKkpm3a8wYk_etbg-424" value="ILayoutNode" style="text;html=1;strokeColor=none;fillColor=none;align=center;verticalAlign=middle;whiteSpace=wrap;rounded=0;fontSize=30;" vertex="1" parent="1">
          <mxGeometry x="9140" y="3611.5" width="270" height="40" as="geometry" />
        </mxCell>
        <mxCell id="8NAubKkpm3a8wYk_etbg-425" value="&lt;div style=&quot;font-size: 20px;&quot;&gt;&amp;nbsp; &amp;nbsp; readonly type: ILayoutNodeType;&lt;/div&gt;&lt;div style=&quot;font-size: 20px;&quot;&gt;&amp;nbsp; &amp;nbsp; readonly renderId: string | null;&lt;/div&gt;&lt;div style=&quot;font-size: 20px;&quot;&gt;&amp;nbsp; &amp;nbsp; readonly text: string;&lt;/div&gt;&lt;div style=&quot;font-size: 20px;&quot;&gt;&amp;nbsp; &amp;nbsp; readonly size: number;&lt;/div&gt;&lt;div style=&quot;font-size: 20px;&quot;&gt;&amp;nbsp; &amp;nbsp; readonly width: number;&lt;/div&gt;&lt;div style=&quot;font-size: 20px;&quot;&gt;&amp;nbsp; &amp;nbsp; readonly height: number;&lt;/div&gt;&lt;div style=&quot;font-size: 20px;&quot;&gt;&amp;nbsp; &amp;nbsp; readonly paddingTop: number;&lt;/div&gt;&lt;div style=&quot;font-size: 20px;&quot;&gt;&amp;nbsp; &amp;nbsp; readonly paddingBottom: number;&lt;/div&gt;&lt;div style=&quot;font-size: 20px;&quot;&gt;&amp;nbsp; &amp;nbsp; readonly paddingLeft: number;&lt;/div&gt;&lt;div style=&quot;font-size: 20px;&quot;&gt;&amp;nbsp; &amp;nbsp; readonly paddingRight: number;&lt;/div&gt;&lt;div style=&quot;font-size: 20px;&quot;&gt;&amp;nbsp; &amp;nbsp; readonly paddingVertical: number;&lt;/div&gt;&lt;div style=&quot;font-size: 20px;&quot;&gt;&amp;nbsp; &amp;nbsp; readonly paddingHorizontal: number;&lt;/div&gt;&lt;div style=&quot;font-size: 20px;&quot;&gt;&amp;nbsp; &amp;nbsp; readonly innerWidth: number;&lt;/div&gt;&lt;div style=&quot;font-size: 20px;&quot;&gt;&amp;nbsp; &amp;nbsp; readonly innerHeight: number;&lt;/div&gt;&lt;div style=&quot;font-size: 20px;&quot;&gt;&amp;nbsp; &amp;nbsp; readonly needView: boolean;&lt;/div&gt;" style="rounded=0;whiteSpace=wrap;html=1;align=left;fontSize=20;" vertex="1" parent="1">
          <mxGeometry x="9125" y="3732" width="370" height="421.5" as="geometry" />
        </mxCell>
        <mxCell id="8NAubKkpm3a8wYk_etbg-426" value="构造函数" style="rounded=0;whiteSpace=wrap;html=1;" vertex="1" parent="1">
          <mxGeometry x="9171.25" y="4193.5" width="277.5" height="40" as="geometry" />
        </mxCell>
        <mxCell id="8NAubKkpm3a8wYk_etbg-435" style="edgeStyle=orthogonalEdgeStyle;rounded=0;orthogonalLoop=1;jettySize=auto;html=1;entryX=0.533;entryY=0.998;entryDx=0;entryDy=0;entryPerimeter=0;dashed=1;dashPattern=12 12;endArrow=block;endFill=0;endSize=24;" edge="1" parent="1" source="8NAubKkpm3a8wYk_etbg-427" target="8NAubKkpm3a8wYk_etbg-423">
          <mxGeometry relative="1" as="geometry" />
        </mxCell>
        <mxCell id="8NAubKkpm3a8wYk_etbg-436" style="edgeStyle=orthogonalEdgeStyle;rounded=0;orthogonalLoop=1;jettySize=auto;html=1;entryX=0.933;entryY=0.998;entryDx=0;entryDy=0;entryPerimeter=0;endArrow=block;endFill=0;endSize=24;" edge="1" parent="1" source="8NAubKkpm3a8wYk_etbg-427" target="8NAubKkpm3a8wYk_etbg-375">
          <mxGeometry relative="1" as="geometry">
            <Array as="points">
              <mxPoint x="9140" y="4550" />
              <mxPoint x="8770" y="4550" />
              <mxPoint x="8770" y="4280" />
              <mxPoint x="8398" y="4280" />
            </Array>
          </mxGeometry>
        </mxCell>
        <mxCell id="8NAubKkpm3a8wYk_etbg-427" value="" style="whiteSpace=wrap;html=1;" vertex="1" parent="1">
          <mxGeometry x="9070" y="4650" width="490" height="465" as="geometry" />
        </mxCell>
        <mxCell id="8NAubKkpm3a8wYk_etbg-428" value="LayoutNode" style="text;html=1;strokeColor=none;fillColor=none;align=center;verticalAlign=middle;whiteSpace=wrap;rounded=0;fontSize=30;" vertex="1" parent="1">
          <mxGeometry x="9232.5" y="4660" width="165" height="40" as="geometry" />
        </mxCell>
        <mxCell id="8NAubKkpm3a8wYk_etbg-429" value="height(): number" style="rounded=0;whiteSpace=wrap;html=1;" vertex="1" parent="1">
          <mxGeometry x="9180" y="4870" width="290" height="40" as="geometry" />
        </mxCell>
        <mxCell id="8NAubKkpm3a8wYk_etbg-430" value="type(): IRenderNodeType" style="rounded=0;whiteSpace=wrap;html=1;" vertex="1" parent="1">
          <mxGeometry x="9180" y="4740" width="290" height="40" as="geometry" />
        </mxCell>
        <mxCell id="8NAubKkpm3a8wYk_etbg-431" value="width(): number" style="rounded=0;whiteSpace=wrap;html=1;" vertex="1" parent="1">
          <mxGeometry x="9180" y="4800" width="290" height="40" as="geometry" />
        </mxCell>
        <mxCell id="8NAubKkpm3a8wYk_etbg-432" value="internalSize?: number" style="rounded=0;whiteSpace=wrap;html=1;" vertex="1" parent="1">
          <mxGeometry x="9247.5" y="4934" width="165" height="40" as="geometry" />
        </mxCell>
        <mxCell id="8NAubKkpm3a8wYk_etbg-434" value="internalNeedLayout = true" style="rounded=0;whiteSpace=wrap;html=1;" vertex="1" parent="1">
          <mxGeometry x="9207.5" y="5025" width="215" height="40" as="geometry" />
        </mxCell>
        <mxCell id="8NAubKkpm3a8wYk_etbg-443" style="edgeStyle=orthogonalEdgeStyle;rounded=0;orthogonalLoop=1;jettySize=auto;html=1;entryX=0.534;entryY=1.001;entryDx=0;entryDy=0;entryPerimeter=0;endArrow=block;endFill=0;endSize=24;" edge="1" parent="1" source="8NAubKkpm3a8wYk_etbg-437" target="8NAubKkpm3a8wYk_etbg-427">
          <mxGeometry relative="1" as="geometry" />
        </mxCell>
        <mxCell id="8NAubKkpm3a8wYk_etbg-437" value="" style="whiteSpace=wrap;html=1;" vertex="1" parent="1">
          <mxGeometry x="9087" y="5520.5" width="490" height="243" as="geometry" />
        </mxCell>
        <mxCell id="8NAubKkpm3a8wYk_etbg-438" value="LayoutBlock" style="text;html=1;strokeColor=none;fillColor=none;align=center;verticalAlign=middle;whiteSpace=wrap;rounded=0;fontSize=30;" vertex="1" parent="1">
          <mxGeometry x="9249.5" y="5530.5" width="165" height="40" as="geometry" />
        </mxCell>
        <mxCell id="8NAubKkpm3a8wYk_etbg-440" value="internalHeight?: number" style="rounded=0;whiteSpace=wrap;html=1;" vertex="1" parent="1">
          <mxGeometry x="9197" y="5610.5" width="290" height="40" as="geometry" />
        </mxCell>
        <mxCell id="8NAubKkpm3a8wYk_etbg-441" value="internalNeedReflow = true" style="rounded=0;whiteSpace=wrap;html=1;" vertex="1" parent="1">
          <mxGeometry x="9197" y="5670.5" width="290" height="40" as="geometry" />
        </mxCell>
        <mxCell id="8NAubKkpm3a8wYk_etbg-448" style="edgeStyle=orthogonalEdgeStyle;rounded=0;orthogonalLoop=1;jettySize=auto;html=1;entryX=0.5;entryY=0;entryDx=0;entryDy=0;" edge="1" parent="1" source="8NAubKkpm3a8wYk_etbg-444" target="8NAubKkpm3a8wYk_etbg-447">
          <mxGeometry relative="1" as="geometry" />
        </mxCell>
        <mxCell id="8NAubKkpm3a8wYk_etbg-444" value="通过递归的方式构建视图树&lt;br&gt;buildNode" style="rounded=0;whiteSpace=wrap;html=1;" vertex="1" parent="1">
          <mxGeometry x="4670" y="4934" width="350" height="50" as="geometry" />
        </mxCell>
        <mxCell id="8NAubKkpm3a8wYk_etbg-446" value="buildPageNode" style="rounded=0;whiteSpace=wrap;html=1;" vertex="1" parent="1">
          <mxGeometry x="4670" y="5397" width="350" height="50" as="geometry" />
        </mxCell>
        <mxCell id="8NAubKkpm3a8wYk_etbg-449" style="edgeStyle=orthogonalEdgeStyle;rounded=0;orthogonalLoop=1;jettySize=auto;html=1;" edge="1" parent="1" source="8NAubKkpm3a8wYk_etbg-447" target="8NAubKkpm3a8wYk_etbg-446">
          <mxGeometry relative="1" as="geometry" />
        </mxCell>
        <mxCell id="8NAubKkpm3a8wYk_etbg-450" value="是" style="edgeLabel;html=1;align=center;verticalAlign=middle;resizable=0;points=[];" vertex="1" connectable="0" parent="8NAubKkpm3a8wYk_etbg-449">
          <mxGeometry x="-0.1749" y="7" relative="1" as="geometry">
            <mxPoint as="offset" />
          </mxGeometry>
        </mxCell>
        <mxCell id="8NAubKkpm3a8wYk_etbg-455" style="edgeStyle=orthogonalEdgeStyle;rounded=0;orthogonalLoop=1;jettySize=auto;html=1;" edge="1" parent="1" source="8NAubKkpm3a8wYk_etbg-447" target="8NAubKkpm3a8wYk_etbg-454">
          <mxGeometry relative="1" as="geometry" />
        </mxCell>
        <mxCell id="8NAubKkpm3a8wYk_etbg-456" value="否" style="edgeLabel;html=1;align=center;verticalAlign=middle;resizable=0;points=[];" vertex="1" connectable="0" parent="8NAubKkpm3a8wYk_etbg-455">
          <mxGeometry x="-0.4507" y="3" relative="1" as="geometry">
            <mxPoint as="offset" />
          </mxGeometry>
        </mxCell>
        <mxCell id="8NAubKkpm3a8wYk_etbg-447" value="page节点？" style="rhombus;whiteSpace=wrap;html=1;fontSize=20;" vertex="1" parent="1">
          <mxGeometry x="4783.75" y="5139" width="122.5" height="104" as="geometry" />
        </mxCell>
        <mxCell id="8NAubKkpm3a8wYk_etbg-451" value="buildLineNode" style="rounded=0;whiteSpace=wrap;html=1;" vertex="1" parent="1">
          <mxGeometry x="5130" y="5397" width="350" height="50" as="geometry" />
        </mxCell>
        <mxCell id="8NAubKkpm3a8wYk_etbg-452" style="edgeStyle=orthogonalEdgeStyle;rounded=0;orthogonalLoop=1;jettySize=auto;html=1;" edge="1" source="8NAubKkpm3a8wYk_etbg-454" target="8NAubKkpm3a8wYk_etbg-451" parent="1">
          <mxGeometry relative="1" as="geometry" />
        </mxCell>
        <mxCell id="8NAubKkpm3a8wYk_etbg-453" value="是" style="edgeLabel;html=1;align=center;verticalAlign=middle;resizable=0;points=[];" vertex="1" connectable="0" parent="8NAubKkpm3a8wYk_etbg-452">
          <mxGeometry x="-0.1749" y="7" relative="1" as="geometry">
            <mxPoint as="offset" />
          </mxGeometry>
        </mxCell>
        <mxCell id="8NAubKkpm3a8wYk_etbg-458" style="edgeStyle=orthogonalEdgeStyle;rounded=0;orthogonalLoop=1;jettySize=auto;html=1;" edge="1" parent="1" source="8NAubKkpm3a8wYk_etbg-454" target="8NAubKkpm3a8wYk_etbg-457">
          <mxGeometry relative="1" as="geometry" />
        </mxCell>
        <mxCell id="8NAubKkpm3a8wYk_etbg-459" value="否" style="edgeLabel;html=1;align=center;verticalAlign=middle;resizable=0;points=[];fontSize=20;" vertex="1" connectable="0" parent="8NAubKkpm3a8wYk_etbg-458">
          <mxGeometry x="-0.4901" y="-4" relative="1" as="geometry">
            <mxPoint as="offset" />
          </mxGeometry>
        </mxCell>
        <mxCell id="8NAubKkpm3a8wYk_etbg-454" value="line节点？" style="rhombus;whiteSpace=wrap;html=1;fontSize=20;" vertex="1" parent="1">
          <mxGeometry x="5243.75" y="5139" width="122.5" height="104" as="geometry" />
        </mxCell>
        <mxCell id="8NAubKkpm3a8wYk_etbg-457" value="component.buildViewNode()" style="rounded=0;whiteSpace=wrap;html=1;" vertex="1" parent="1">
          <mxGeometry x="5580" y="5397" width="350" height="50" as="geometry" />
        </mxCell>
        <mxCell id="8NAubKkpm3a8wYk_etbg-460" style="edgeStyle=orthogonalEdgeStyle;rounded=0;orthogonalLoop=1;jettySize=auto;html=1;entryX=0;entryY=0.75;entryDx=0;entryDy=0;strokeWidth=4;" edge="1" parent="1" source="8NAubKkpm3a8wYk_etbg-457" target="8NAubKkpm3a8wYk_etbg-357">
          <mxGeometry relative="1" as="geometry">
            <Array as="points">
              <mxPoint x="5890" y="2527" />
            </Array>
          </mxGeometry>
        </mxCell>
        <mxCell id="8NAubKkpm3a8wYk_etbg-465" value="new ViewParagraph" style="rounded=0;whiteSpace=wrap;html=1;" vertex="1" parent="1">
          <mxGeometry x="5990" y="3927" width="350" height="50" as="geometry" />
        </mxCell>
        <mxCell id="8NAubKkpm3a8wYk_etbg-466" style="edgeStyle=orthogonalEdgeStyle;rounded=0;orthogonalLoop=1;jettySize=auto;html=1;" edge="1" source="8NAubKkpm3a8wYk_etbg-468" target="8NAubKkpm3a8wYk_etbg-465" parent="1">
          <mxGeometry relative="1" as="geometry" />
        </mxCell>
        <mxCell id="8NAubKkpm3a8wYk_etbg-467" value="是" style="edgeLabel;html=1;align=center;verticalAlign=middle;resizable=0;points=[];" vertex="1" connectable="0" parent="8NAubKkpm3a8wYk_etbg-466">
          <mxGeometry x="-0.1749" y="7" relative="1" as="geometry">
            <mxPoint as="offset" />
          </mxGeometry>
        </mxCell>
        <mxCell id="8NAubKkpm3a8wYk_etbg-474" style="edgeStyle=orthogonalEdgeStyle;rounded=0;orthogonalLoop=1;jettySize=auto;html=1;entryX=0.069;entryY=0.475;entryDx=0;entryDy=0;entryPerimeter=0;" edge="1" parent="1" source="8NAubKkpm3a8wYk_etbg-468" target="8NAubKkpm3a8wYk_etbg-473">
          <mxGeometry relative="1" as="geometry" />
        </mxCell>
        <mxCell id="8NAubKkpm3a8wYk_etbg-475" value="否" style="edgeLabel;html=1;align=center;verticalAlign=middle;resizable=0;points=[];" vertex="1" connectable="0" parent="8NAubKkpm3a8wYk_etbg-474">
          <mxGeometry x="-0.1594" y="-6" relative="1" as="geometry">
            <mxPoint x="-1" as="offset" />
          </mxGeometry>
        </mxCell>
        <mxCell id="8NAubKkpm3a8wYk_etbg-468" value="paragraph节点？" style="rhombus;whiteSpace=wrap;html=1;fontSize=20;" vertex="1" parent="1">
          <mxGeometry x="6046.87" y="3679" width="236.25" height="104" as="geometry" />
        </mxCell>
        <mxCell id="8NAubKkpm3a8wYk_etbg-470" value="new ViewParagraphLineBreak" style="rounded=0;whiteSpace=wrap;html=1;" vertex="1" parent="1">
          <mxGeometry x="6500" y="3927" width="350" height="50" as="geometry" />
        </mxCell>
        <mxCell id="8NAubKkpm3a8wYk_etbg-471" style="edgeStyle=orthogonalEdgeStyle;rounded=0;orthogonalLoop=1;jettySize=auto;html=1;" edge="1" source="8NAubKkpm3a8wYk_etbg-473" target="8NAubKkpm3a8wYk_etbg-470" parent="1">
          <mxGeometry relative="1" as="geometry" />
        </mxCell>
        <mxCell id="8NAubKkpm3a8wYk_etbg-472" value="是" style="edgeLabel;html=1;align=center;verticalAlign=middle;resizable=0;points=[];" vertex="1" connectable="0" parent="8NAubKkpm3a8wYk_etbg-471">
          <mxGeometry x="-0.1749" y="7" relative="1" as="geometry">
            <mxPoint as="offset" />
          </mxGeometry>
        </mxCell>
        <mxCell id="8NAubKkpm3a8wYk_etbg-473" value="line-break节点？" style="rhombus;whiteSpace=wrap;html=1;fontSize=20;" vertex="1" parent="1">
          <mxGeometry x="6556.87" y="3679" width="236.25" height="104" as="geometry" />
        </mxCell>
        <mxCell id="8NAubKkpm3a8wYk_etbg-497" style="edgeStyle=orthogonalEdgeStyle;rounded=0;orthogonalLoop=1;jettySize=auto;html=1;entryX=0.848;entryY=1;entryDx=0;entryDy=0;entryPerimeter=0;endArrow=block;endFill=0;endSize=24;" edge="1" parent="1" source="8NAubKkpm3a8wYk_etbg-477" target="8NAubKkpm3a8wYk_etbg-27">
          <mxGeometry relative="1" as="geometry">
            <Array as="points">
              <mxPoint x="10154" y="3540" />
              <mxPoint x="8360" y="3540" />
            </Array>
          </mxGeometry>
        </mxCell>
        <mxCell id="8NAubKkpm3a8wYk_etbg-477" value="" style="whiteSpace=wrap;html=1;" vertex="1" parent="1">
          <mxGeometry x="9924" y="3572.5" width="460" height="587.5" as="geometry" />
        </mxCell>
        <mxCell id="8NAubKkpm3a8wYk_etbg-478" value="IViewNode" style="text;html=1;strokeColor=none;fillColor=none;align=center;verticalAlign=middle;whiteSpace=wrap;rounded=0;fontSize=30;" vertex="1" parent="1">
          <mxGeometry x="9984" y="3591.5" width="270" height="40" as="geometry" />
        </mxCell>
        <mxCell id="8NAubKkpm3a8wYk_etbg-479" value="&lt;div style=&quot;font-size: 20px;&quot;&gt;&lt;div&gt;&amp;nbsp; &amp;nbsp; readonly type: IViewNodeType;&lt;/div&gt;&lt;div&gt;&amp;nbsp; &amp;nbsp; readonly componentId: string | null;&lt;/div&gt;&lt;div&gt;&amp;nbsp; &amp;nbsp; readonly partId: string | null;&lt;/div&gt;&lt;div&gt;&amp;nbsp; &amp;nbsp; readonly renderId: string | null;&lt;/div&gt;&lt;div&gt;&amp;nbsp; &amp;nbsp; readonly layoutId: string;&lt;/div&gt;&lt;div&gt;&amp;nbsp; &amp;nbsp; readonly size: number;&lt;/div&gt;&lt;div&gt;&amp;nbsp; &amp;nbsp; readonly domContainer: HTMLElement;&lt;/div&gt;&lt;/div&gt;" style="rounded=0;whiteSpace=wrap;html=1;align=left;fontSize=20;" vertex="1" parent="1">
          <mxGeometry x="9969" y="3712" width="391" height="268" as="geometry" />
        </mxCell>
        <mxCell id="8NAubKkpm3a8wYk_etbg-480" value="构造函数" style="rounded=0;whiteSpace=wrap;html=1;" vertex="1" parent="1">
          <mxGeometry x="10015.25" y="4060" width="277.5" height="40" as="geometry" />
        </mxCell>
        <mxCell id="8NAubKkpm3a8wYk_etbg-490" style="edgeStyle=orthogonalEdgeStyle;rounded=0;orthogonalLoop=1;jettySize=auto;html=1;entryX=0.535;entryY=1;entryDx=0;entryDy=0;entryPerimeter=0;endArrow=block;endFill=0;dashed=1;dashPattern=12 12;endSize=24;" edge="1" parent="1" source="8NAubKkpm3a8wYk_etbg-482" target="8NAubKkpm3a8wYk_etbg-477">
          <mxGeometry relative="1" as="geometry" />
        </mxCell>
        <mxCell id="8NAubKkpm3a8wYk_etbg-482" value="" style="whiteSpace=wrap;html=1;" vertex="1" parent="1">
          <mxGeometry x="9930" y="4490" width="490" height="410" as="geometry" />
        </mxCell>
        <mxCell id="8NAubKkpm3a8wYk_etbg-489" style="edgeStyle=orthogonalEdgeStyle;rounded=0;orthogonalLoop=1;jettySize=auto;html=1;entryX=1;entryY=0.75;entryDx=0;entryDy=0;endArrow=block;endFill=0;endSize=24;exitX=0.184;exitY=-0.006;exitDx=0;exitDy=0;exitPerimeter=0;" edge="1" parent="1" source="8NAubKkpm3a8wYk_etbg-482" target="8NAubKkpm3a8wYk_etbg-375">
          <mxGeometry relative="1" as="geometry">
            <Array as="points">
              <mxPoint x="10020" y="4410" />
              <mxPoint x="9000" y="4410" />
              <mxPoint x="9000" y="4017" />
            </Array>
          </mxGeometry>
        </mxCell>
        <mxCell id="8NAubKkpm3a8wYk_etbg-483" value="ViewNode" style="text;html=1;strokeColor=none;fillColor=none;align=center;verticalAlign=middle;whiteSpace=wrap;rounded=0;fontSize=30;" vertex="1" parent="1">
          <mxGeometry x="10092.5" y="4500" width="165" height="40" as="geometry" />
        </mxCell>
        <mxCell id="8NAubKkpm3a8wYk_etbg-484" value="internalSize?: number" style="rounded=0;whiteSpace=wrap;html=1;" vertex="1" parent="1">
          <mxGeometry x="10040" y="4710" width="290" height="40" as="geometry" />
        </mxCell>
        <mxCell id="8NAubKkpm3a8wYk_etbg-485" value="type(): IRenderNodeType" style="rounded=0;whiteSpace=wrap;html=1;" vertex="1" parent="1">
          <mxGeometry x="10040" y="4580" width="290" height="40" as="geometry" />
        </mxCell>
        <mxCell id="8NAubKkpm3a8wYk_etbg-486" value="partId(): string" style="rounded=0;whiteSpace=wrap;html=1;" vertex="1" parent="1">
          <mxGeometry x="10040" y="4640" width="290" height="40" as="geometry" />
        </mxCell>
        <mxCell id="8NAubKkpm3a8wYk_etbg-488" value="get size()" style="rounded=0;whiteSpace=wrap;html=1;" vertex="1" parent="1">
          <mxGeometry x="10067.5" y="4800" width="215" height="40" as="geometry" />
        </mxCell>
        <mxCell id="8NAubKkpm3a8wYk_etbg-498" style="edgeStyle=orthogonalEdgeStyle;rounded=0;orthogonalLoop=1;jettySize=auto;html=1;entryX=0.543;entryY=1.002;entryDx=0;entryDy=0;entryPerimeter=0;endArrow=block;endFill=0;endSize=24;" edge="1" parent="1" source="8NAubKkpm3a8wYk_etbg-491" target="8NAubKkpm3a8wYk_etbg-482">
          <mxGeometry relative="1" as="geometry" />
        </mxCell>
        <mxCell id="8NAubKkpm3a8wYk_etbg-491" value="" style="whiteSpace=wrap;html=1;" vertex="1" parent="1">
          <mxGeometry x="9950" y="5380" width="490" height="280" as="geometry" />
        </mxCell>
        <mxCell id="8NAubKkpm3a8wYk_etbg-492" value="ViewBlock" style="text;html=1;strokeColor=none;fillColor=none;align=center;verticalAlign=middle;whiteSpace=wrap;rounded=0;fontSize=30;" vertex="1" parent="1">
          <mxGeometry x="10112.5" y="5390" width="165" height="40" as="geometry" />
        </mxCell>
        <mxCell id="8NAubKkpm3a8wYk_etbg-496" value="&lt;div style=&quot;font-size: 20px;&quot;&gt;&amp;nbsp; &amp;nbsp; get type(): IViewNodeType {&lt;/div&gt;&lt;div style=&quot;font-size: 20px;&quot;&gt;&amp;nbsp; &amp;nbsp; &amp;nbsp; &amp;nbsp; return &#39;block&#39;;&lt;/div&gt;&lt;div style=&quot;font-size: 20px;&quot;&gt;&amp;nbsp; &amp;nbsp; }&lt;/div&gt;" style="rounded=0;whiteSpace=wrap;html=1;fontSize=20;align=left;" vertex="1" parent="1">
          <mxGeometry x="10040" y="5491" width="300" height="90" as="geometry" />
        </mxCell>
        <mxCell id="8NAubKkpm3a8wYk_etbg-505" style="edgeStyle=orthogonalEdgeStyle;rounded=0;orthogonalLoop=1;jettySize=auto;html=1;entryX=0.5;entryY=1;entryDx=0;entryDy=0;endArrow=block;endFill=0;endSize=24;" edge="1" parent="1" source="8NAubKkpm3a8wYk_etbg-499" target="8NAubKkpm3a8wYk_etbg-491">
          <mxGeometry relative="1" as="geometry" />
        </mxCell>
        <mxCell id="8NAubKkpm3a8wYk_etbg-499" value="" style="whiteSpace=wrap;html=1;" vertex="1" parent="1">
          <mxGeometry x="9960" y="5955" width="490" height="280" as="geometry" />
        </mxCell>
        <mxCell id="8NAubKkpm3a8wYk_etbg-500" value="ViewParagraph" style="text;html=1;strokeColor=none;fillColor=none;align=center;verticalAlign=middle;whiteSpace=wrap;rounded=0;fontSize=30;" vertex="1" parent="1">
          <mxGeometry x="10122.5" y="5965" width="165" height="40" as="geometry" />
        </mxCell>
        <mxCell id="8NAubKkpm3a8wYk_etbg-502" value="&lt;div style=&quot;&quot;&gt;初始化ithis.domContainer.style&lt;br&gt;&lt;/div&gt;&lt;div style=&quot;&quot;&gt;并且将所有子节点容器添加到当前节点的容器中&lt;/div&gt;&lt;div style=&quot;&quot;&gt;this.domContainer.appendChild(child.domContainer)&lt;/div&gt;" style="rounded=0;whiteSpace=wrap;html=1;fontSize=20;align=center;" vertex="1" parent="1">
          <mxGeometry x="9937" y="6500" width="536" height="170" as="geometry" />
        </mxCell>
        <mxCell id="8NAubKkpm3a8wYk_etbg-504" style="edgeStyle=orthogonalEdgeStyle;rounded=0;orthogonalLoop=1;jettySize=auto;html=1;entryX=0.5;entryY=0;entryDx=0;entryDy=0;" edge="1" parent="1" source="8NAubKkpm3a8wYk_etbg-503" target="8NAubKkpm3a8wYk_etbg-502">
          <mxGeometry relative="1" as="geometry" />
        </mxCell>
        <mxCell id="8NAubKkpm3a8wYk_etbg-503" value="构造函数" style="rounded=0;whiteSpace=wrap;html=1;" vertex="1" parent="1">
          <mxGeometry x="10060" y="6120" width="290" height="40" as="geometry" />
        </mxCell>
        <mxCell id="8NAubKkpm3a8wYk_etbg-507" style="edgeStyle=orthogonalEdgeStyle;rounded=0;orthogonalLoop=1;jettySize=auto;html=1;entryX=0;entryY=0.5;entryDx=0;entryDy=0;dashed=1;dashPattern=1 1;strokeWidth=6;" edge="1" parent="1" source="8NAubKkpm3a8wYk_etbg-465" target="8NAubKkpm3a8wYk_etbg-503">
          <mxGeometry relative="1" as="geometry">
            <Array as="points">
              <mxPoint x="6165" y="7200" />
              <mxPoint x="9640" y="7200" />
              <mxPoint x="9640" y="6140" />
            </Array>
          </mxGeometry>
        </mxCell>
        <mxCell id="8NAubKkpm3a8wYk_etbg-510" value="将当前视图树根节点的container添加到domContainer的子节点列表中去" style="rounded=0;whiteSpace=wrap;html=1;" vertex="1" parent="1">
          <mxGeometry x="4100" y="4219" width="255" height="40" as="geometry" />
        </mxCell>
      </root>
    </mxGraphModel>
  </diagram>
</mxfile>
